<?xml version="1.0" encoding="UTF-8" standalone="no"?>
<!DOCTYPE svg PUBLIC "-//W3C//DTD SVG 1.1//EN"
 "http://www.w3.org/Graphics/SVG/1.1/DTD/svg11.dtd">
<!-- Generated by graphviz version 2.38.0 (20140413.2041)
 -->
<!-- Title: %6273 Pages: 1 -->
<svg width="681pt" height="647pt"
 viewBox="0.00 0.00 680.69 647.00" xmlns="http://www.w3.org/2000/svg" xmlns:xlink="http://www.w3.org/1999/xlink">
<g id="graph0" class="graph" transform="scale(1 1) rotate(0) translate(4 643)">
<title>%6273</title>
<polygon fill="white" stroke="none" points="-4,4 -4,-643 676.689,-643 676.689,4 -4,4"/>
<!-- N0 -->
<g id="node1" class="node"><title>N0</title>
<polygon fill="none" stroke="black" points="226.746,-620.5 226.746,-638.5 289.254,-638.5 289.254,-620.5 226.746,-620.5"/>
<text text-anchor="middle" x="235.746" y="-627.1" font-family="Times,serif" font-size="8.00"> </text>
<polyline fill="none" stroke="black" points="244.746,-620.5 244.746,-638.5 "/>
<text text-anchor="middle" x="267" y="-627.1" font-family="Times,serif" font-size="8.00">i0 = start</text>
</g>
<!-- N4 -->
<g id="node5" class="node"><title>N4</title>
<polygon fill="none" stroke="black" points="205.422,-558.5 205.422,-576.5 296.578,-576.5 296.578,-558.5 205.422,-558.5"/>
<text text-anchor="middle" x="214.422" y="-565.1" font-family="Times,serif" font-size="8.00"> </text>
<polyline fill="none" stroke="black" points="223.422,-558.5 223.422,-576.5 "/>
<text text-anchor="middle" x="236.41" y="-565.1" font-family="Times,serif" font-size="8.00">^i0</text>
<polyline fill="none" stroke="black" points="249.398,-558.5 249.398,-576.5 "/>
<text text-anchor="middle" x="272.988" y="-565.1" font-family="Times,serif" font-size="8.00">i4 = jump</text>
</g>
<!-- N0&#45;&gt;N4 -->
<g id="edge1" class="edge"><title>N0:CS&#45;&gt;N4:C0</title>
<path fill="none" stroke="black" stroke-dasharray="5,2" d="M236,-609.888C236,-598.357 236,-592.229 236,-577"/>
<polygon fill="black" stroke="black" points="232.5,-610 236,-620 239.5,-610 232.5,-610"/>
</g>
<!-- N1 -->
<g id="node2" class="node"><title>N1</title>
<polygon fill="none" stroke="black" points="587.641,-496.5 587.641,-514.5 664.359,-514.5 664.359,-496.5 587.641,-496.5"/>
<text text-anchor="middle" x="596.641" y="-503.1" font-family="Times,serif" font-size="8.00"> </text>
<polyline fill="none" stroke="black" points="605.641,-496.5 605.641,-514.5 "/>
<text text-anchor="middle" x="635" y="-503.1" font-family="Times,serif" font-size="8.00">i1 = literal(0)</text>
</g>
<!-- N6 -->
<g id="node7" class="node"><title>N6</title>
<polygon fill="none" stroke="black" points="527.311,-434.5 527.311,-452.5 672.689,-452.5 672.689,-434.5 527.311,-434.5"/>
<text text-anchor="middle" x="536.311" y="-441.1" font-family="Times,serif" font-size="8.00"> </text>
<polyline fill="none" stroke="black" points="545.311,-434.5 545.311,-452.5 "/>
<text text-anchor="middle" x="558.299" y="-441.1" font-family="Times,serif" font-size="8.00">^i5</text>
<polyline fill="none" stroke="black" points="571.287,-434.5 571.287,-452.5 "/>
<text text-anchor="middle" x="597.766" y="-441.1" font-family="Times,serif" font-size="8.00">i6 = ssa:phi</text>
<polyline fill="none" stroke="black" points="624.244,-434.5 624.244,-452.5 "/>
<text text-anchor="middle" x="635.355" y="-441.1" font-family="Times,serif" font-size="8.00">i1</text>
<polyline fill="none" stroke="black" points="646.467,-434.5 646.467,-452.5 "/>
<text text-anchor="middle" x="659.578" y="-441.1" font-family="Times,serif" font-size="8.00">i14</text>
</g>
<!-- N1&#45;&gt;N6 -->
<g id="edge5" class="edge"><title>N1:S&#45;&gt;N6:I0</title>
<path fill="none" stroke="black" d="M635,-496C635,-480.771 635,-474.643 635,-463.112"/>
<polygon fill="black" stroke="black" points="638.5,-463 635,-453 631.5,-463 638.5,-463"/>
</g>
<!-- N2 -->
<g id="node3" class="node"><title>N2</title>
<polygon fill="none" stroke="black" points="421.641,-434.5 421.641,-452.5 498.359,-452.5 498.359,-434.5 421.641,-434.5"/>
<text text-anchor="middle" x="430.641" y="-441.1" font-family="Times,serif" font-size="8.00"> </text>
<polyline fill="none" stroke="black" points="439.641,-434.5 439.641,-452.5 "/>
<text text-anchor="middle" x="469" y="-441.1" font-family="Times,serif" font-size="8.00">i2 = literal(0)</text>
</g>
<!-- N7 -->
<g id="node8" class="node"><title>N7</title>
<polygon fill="none" stroke="black" points="361.311,-372.5 361.311,-390.5 506.689,-390.5 506.689,-372.5 361.311,-372.5"/>
<text text-anchor="middle" x="370.311" y="-379.1" font-family="Times,serif" font-size="8.00"> </text>
<polyline fill="none" stroke="black" points="379.311,-372.5 379.311,-390.5 "/>
<text text-anchor="middle" x="392.299" y="-379.1" font-family="Times,serif" font-size="8.00">^i6</text>
<polyline fill="none" stroke="black" points="405.287,-372.5 405.287,-390.5 "/>
<text text-anchor="middle" x="431.766" y="-379.1" font-family="Times,serif" font-size="8.00">i7 = ssa:phi</text>
<polyline fill="none" stroke="black" points="458.244,-372.5 458.244,-390.5 "/>
<text text-anchor="middle" x="469.355" y="-379.1" font-family="Times,serif" font-size="8.00">i2</text>
<polyline fill="none" stroke="black" points="480.467,-372.5 480.467,-390.5 "/>
<text text-anchor="middle" x="493.578" y="-379.1" font-family="Times,serif" font-size="8.00">i16</text>
</g>
<!-- N2&#45;&gt;N7 -->
<g id="edge8" class="edge"><title>N2:S&#45;&gt;N7:I0</title>
<path fill="none" stroke="black" d="M469,-434C469,-418.771 469,-412.643 469,-401.112"/>
<polygon fill="black" stroke="black" points="472.5,-401 469,-391 465.5,-401 472.5,-401"/>
</g>
<!-- N3 -->
<g id="node4" class="node"><title>N3</title>
<polygon fill="none" stroke="red" points="219.418,-434.5 219.418,-452.5 284.582,-452.5 284.582,-434.5 219.418,-434.5"/>
<text text-anchor="middle" x="228.418" y="-441.1" font-family="Times,serif" font-size="8.00"> </text>
<polyline fill="none" stroke="red" points="237.418,-434.5 237.418,-452.5 "/>
<text text-anchor="middle" x="261" y="-441.1" font-family="Times,serif" font-size="8.00">i3 = array</text>
</g>
<!-- N8 -->
<g id="node9" class="node"><title>N8</title>
<polygon fill="none" stroke="black" points="216.977,-372.5 216.977,-390.5 343.023,-390.5 343.023,-372.5 216.977,-372.5"/>
<text text-anchor="middle" x="225.977" y="-379.1" font-family="Times,serif" font-size="8.00"> </text>
<polyline fill="none" stroke="black" points="234.977,-372.5 234.977,-390.5 "/>
<text text-anchor="middle" x="277.889" y="-379.1" font-family="Times,serif" font-size="8.00">i8 = loadArrayLength</text>
<polyline fill="none" stroke="black" points="320.801,-372.5 320.801,-390.5 "/>
<text text-anchor="middle" x="331.912" y="-379.1" font-family="Times,serif" font-size="8.00">i3</text>
</g>
<!-- N3&#45;&gt;N8 -->
<g id="edge10" class="edge"><title>N3:S&#45;&gt;N8:I0</title>
<path fill="none" stroke="black" d="M261,-434C261,-401.143 317.318,-421.967 329.638,-400.853"/>
<polygon fill="black" stroke="black" points="333.072,-401.54 332,-391 326.265,-399.908 333.072,-401.54"/>
</g>
<!-- N12 -->
<g id="node13" class="node"><title>N12</title>
<polygon fill="none" stroke="black" points="265.135,-124.5 265.135,-142.5 428.865,-142.5 428.865,-124.5 265.135,-124.5"/>
<text text-anchor="middle" x="274.135" y="-131.1" font-family="Times,serif" font-size="8.00"> </text>
<polyline fill="none" stroke="black" points="283.135,-124.5 283.135,-142.5 "/>
<text text-anchor="middle" x="297.977" y="-131.1" font-family="Times,serif" font-size="8.00">^i11</text>
<polyline fill="none" stroke="black" points="312.818,-124.5 312.818,-142.5 "/>
<text text-anchor="middle" x="348.619" y="-131.1" font-family="Times,serif" font-size="8.00">i12 = checkIndex</text>
<polyline fill="none" stroke="black" points="384.42,-124.5 384.42,-142.5 "/>
<text text-anchor="middle" x="395.531" y="-131.1" font-family="Times,serif" font-size="8.00">i3</text>
<polyline fill="none" stroke="black" points="406.643,-124.5 406.643,-142.5 "/>
<text text-anchor="middle" x="417.754" y="-131.1" font-family="Times,serif" font-size="8.00">i7</text>
</g>
<!-- N3&#45;&gt;N12 -->
<g id="edge17" class="edge"><title>N3:S&#45;&gt;N12:I0</title>
<path fill="none" stroke="black" d="M196,-256.5C180.038,-221.56 214.659,-208.211 246,-186 299.384,-148.166 385.555,-205.179 395.128,-153.504"/>
<polygon fill="black" stroke="black" points="398.627,-153.669 395.999,-143.405 391.652,-153.067 398.627,-153.669"/>
</g>
<!-- N13 -->
<g id="node14" class="node"><title>N13</title>
<polygon fill="none" stroke="black" points="340.535,-62.5 340.535,-80.5 481.465,-80.5 481.465,-62.5 340.535,-62.5"/>
<text text-anchor="middle" x="349.535" y="-69.1" font-family="Times,serif" font-size="8.00"> </text>
<polyline fill="none" stroke="black" points="358.535,-62.5 358.535,-80.5 "/>
<text text-anchor="middle" x="373.523" y="-69.1" font-family="Times,serif" font-size="8.00">^i12</text>
<polyline fill="none" stroke="black" points="388.512,-62.5 388.512,-80.5 "/>
<text text-anchor="middle" x="412.766" y="-69.1" font-family="Times,serif" font-size="8.00">i13 = load</text>
<polyline fill="none" stroke="black" points="437.02,-62.5 437.02,-80.5 "/>
<text text-anchor="middle" x="448.131" y="-69.1" font-family="Times,serif" font-size="8.00">i3</text>
<polyline fill="none" stroke="black" points="459.242,-62.5 459.242,-80.5 "/>
<text text-anchor="middle" x="470.354" y="-69.1" font-family="Times,serif" font-size="8.00">i7</text>
</g>
<!-- N3&#45;&gt;N13 -->
<g id="edge20" class="edge"><title>N3:S&#45;&gt;N13:I0</title>
<path fill="none" stroke="black" d="M261,-434C261,-403.667 222.269,-417.767 208,-391 180.185,-338.821 216.963,-313.789 196,-258.5"/>
<path fill="none" stroke="black" d="M196,-256.5C168.727,-196.529 94.6327,-259.076 57,-205 36.4362,-175.451 32.9758,-150.811 57,-124 112.827,-61.6964 419.918,-159.324 446.206,-91.2068"/>
<polygon fill="black" stroke="black" points="449.715,-91.455 448,-81 442.821,-90.2429 449.715,-91.455"/>
</g>
<!-- N5 -->
<g id="node6" class="node"><title>N5</title>
<polygon fill="none" stroke="black" points="183.438,-496.5 183.438,-514.5 308.562,-514.5 308.562,-496.5 183.438,-496.5"/>
<text text-anchor="middle" x="192.438" y="-503.1" font-family="Times,serif" font-size="8.00"> </text>
<polyline fill="none" stroke="black" points="201.438,-496.5 201.438,-514.5 "/>
<text text-anchor="middle" x="214.426" y="-503.1" font-family="Times,serif" font-size="8.00">^i4</text>
<polyline fill="none" stroke="black" points="227.414,-496.5 227.414,-514.5 "/>
<text text-anchor="middle" x="242.402" y="-503.1" font-family="Times,serif" font-size="8.00">^i17</text>
<polyline fill="none" stroke="black" points="257.391,-496.5 257.391,-514.5 "/>
<text text-anchor="middle" x="282.977" y="-503.1" font-family="Times,serif" font-size="8.00">i5 = region</text>
</g>
<!-- N4&#45;&gt;N5 -->
<g id="edge2" class="edge"><title>N4:CS&#45;&gt;N5:C0</title>
<path fill="none" stroke="black" stroke-dasharray="5,2" d="M214,-547.888C214,-536.357 214,-530.229 214,-515"/>
<polygon fill="black" stroke="black" points="210.5,-548 214,-558 217.5,-548 210.5,-548"/>
</g>
<!-- N5&#45;&gt;N6 -->
<g id="edge4" class="edge"><title>N5:CS&#45;&gt;N6:C0</title>
<path fill="none" stroke="black" stroke-dasharray="5,2" d="M194.149,-486.154C224.144,-424.55 558,-531.214 558,-453"/>
<polygon fill="black" stroke="black" points="190.713,-485.484 192,-496 197.552,-486.977 190.713,-485.484"/>
</g>
<!-- N6&#45;&gt;N7 -->
<g id="edge7" class="edge"><title>N6:CS&#45;&gt;N7:C0</title>
<path fill="none" stroke="black" stroke-dasharray="5,2" d="M516.206,-440.164C513.718,-438.26 511.328,-435.885 507,-434 456.971,-412.212 392,-445.567 392,-391"/>
<polygon fill="black" stroke="black" points="515.406,-443.589 526,-443.5 517.663,-436.962 515.406,-443.589"/>
</g>
<!-- N14 -->
<g id="node15" class="node"><title>N14</title>
<polygon fill="none" stroke="black" points="557.635,-0.5 557.635,-18.5 670.365,-18.5 670.365,-0.5 557.635,-0.5"/>
<text text-anchor="middle" x="566.635" y="-7.1" font-family="Times,serif" font-size="8.00"> </text>
<polyline fill="none" stroke="black" points="575.635,-0.5 575.635,-18.5 "/>
<text text-anchor="middle" x="598.777" y="-7.1" font-family="Times,serif" font-size="8.00">i14 = add</text>
<polyline fill="none" stroke="black" points="621.92,-0.5 621.92,-18.5 "/>
<text text-anchor="middle" x="633.031" y="-7.1" font-family="Times,serif" font-size="8.00">i6</text>
<polyline fill="none" stroke="black" points="644.143,-0.5 644.143,-18.5 "/>
<text text-anchor="middle" x="657.254" y="-7.1" font-family="Times,serif" font-size="8.00">i13</text>
</g>
<!-- N6&#45;&gt;N14 -->
<g id="edge22" class="edge"><title>N6:S&#45;&gt;N14:I0</title>
<path fill="none" stroke="black" d="M598,-434C598,-413.609 607.785,-410.421 614,-391 623.891,-360.093 633,-352.951 633,-320.5 633,-320.5 633,-320.5 633,-132.5 633,-85.6024 633,-71.4049 633,-29.1058"/>
<polygon fill="black" stroke="black" points="636.5,-29 633,-19 629.5,-29 636.5,-29"/>
</g>
<!-- N9 -->
<g id="node10" class="node"><title>N9</title>
<polygon fill="none" stroke="black" points="273.604,-310.5 273.604,-328.5 390.396,-328.5 390.396,-310.5 273.604,-310.5"/>
<text text-anchor="middle" x="282.604" y="-317.1" font-family="Times,serif" font-size="8.00"> </text>
<polyline fill="none" stroke="black" points="291.604,-310.5 291.604,-328.5 "/>
<text text-anchor="middle" x="318.777" y="-317.1" font-family="Times,serif" font-size="8.00">i9 = cmp(&lt;)</text>
<polyline fill="none" stroke="black" points="345.951,-310.5 345.951,-328.5 "/>
<text text-anchor="middle" x="357.062" y="-317.1" font-family="Times,serif" font-size="8.00">i7</text>
<polyline fill="none" stroke="black" points="368.174,-310.5 368.174,-328.5 "/>
<text text-anchor="middle" x="379.285" y="-317.1" font-family="Times,serif" font-size="8.00">i8</text>
</g>
<!-- N7&#45;&gt;N9 -->
<g id="edge11" class="edge"><title>N7:S&#45;&gt;N9:I0</title>
<path fill="none" stroke="black" d="M432,-372C432,-337.629 371.986,-361.088 359.327,-338.915"/>
<polygon fill="black" stroke="black" points="362.692,-337.936 357,-329 355.877,-339.535 362.692,-337.936"/>
</g>
<!-- N10 -->
<g id="node11" class="node"><title>N10</title>
<polygon fill="none" stroke="black" points="224.09,-248.5 224.09,-266.5 329.91,-266.5 329.91,-248.5 224.09,-248.5"/>
<text text-anchor="middle" x="233.09" y="-255.1" font-family="Times,serif" font-size="8.00"> </text>
<polyline fill="none" stroke="black" points="242.09,-248.5 242.09,-266.5 "/>
<text text-anchor="middle" x="255.078" y="-255.1" font-family="Times,serif" font-size="8.00">^i7</text>
<polyline fill="none" stroke="black" points="268.066,-248.5 268.066,-266.5 "/>
<text text-anchor="middle" x="287.877" y="-255.1" font-family="Times,serif" font-size="8.00">i10 = if</text>
<polyline fill="none" stroke="black" points="307.688,-248.5 307.688,-266.5 "/>
<text text-anchor="middle" x="318.799" y="-255.1" font-family="Times,serif" font-size="8.00">i9</text>
</g>
<!-- N7&#45;&gt;N10 -->
<g id="edge13" class="edge"><title>N7:CS&#45;&gt;N10:C0</title>
<path fill="none" stroke="black" stroke-dasharray="5,2" d="M353.633,-373.76C353.206,-373.13 352.679,-372.532 352,-372 318.058,-345.386 290.614,-363.703 265,-329 248.425,-306.543 255,-294.912 255,-267"/>
<polygon fill="black" stroke="black" points="350.944,-376 360,-381.5 356.35,-371.554 350.944,-376"/>
</g>
<!-- N7&#45;&gt;N12 -->
<g id="edge18" class="edge"><title>N7:S&#45;&gt;N12:I1</title>
<path fill="none" stroke="black" d="M418,-194.5C423.386,-176.218 419.802,-168.544 418.452,-153.274"/>
<polygon fill="black" stroke="black" points="421.948,-153.099 418,-143.267 414.955,-153.415 421.948,-153.099"/>
</g>
<!-- N7&#45;&gt;N13 -->
<g id="edge21" class="edge"><title>N7:S&#45;&gt;N13:I1</title>
<path fill="none" stroke="black" d="M432,-372C432,-293.752 395.889,-271.559 418,-196.5"/>
<path fill="none" stroke="black" d="M418,-194.5C438.687,-135.021 514.473,-194.996 550,-143 579.787,-99.4052 536.484,-75.0707 492.066,-71.8642"/>
<polygon fill="black" stroke="black" points="492.12,-68.3639 482,-71.5 491.867,-75.3594 492.12,-68.3639"/>
</g>
<!-- N16 -->
<g id="node17" class="node"><title>N16</title>
<polygon fill="none" stroke="black" points="452.635,-310.5 452.635,-328.5 565.365,-328.5 565.365,-310.5 452.635,-310.5"/>
<text text-anchor="middle" x="461.635" y="-317.1" font-family="Times,serif" font-size="8.00"> </text>
<polyline fill="none" stroke="black" points="470.635,-310.5 470.635,-328.5 "/>
<text text-anchor="middle" x="493.777" y="-317.1" font-family="Times,serif" font-size="8.00">i16 = add</text>
<polyline fill="none" stroke="black" points="516.92,-310.5 516.92,-328.5 "/>
<text text-anchor="middle" x="528.031" y="-317.1" font-family="Times,serif" font-size="8.00">i7</text>
<polyline fill="none" stroke="black" points="539.143,-310.5 539.143,-328.5 "/>
<text text-anchor="middle" x="552.254" y="-317.1" font-family="Times,serif" font-size="8.00">i15</text>
</g>
<!-- N7&#45;&gt;N16 -->
<g id="edge24" class="edge"><title>N7:S&#45;&gt;N16:I0</title>
<path fill="none" stroke="black" d="M432,-372C432,-329.266 512.209,-367.789 525.995,-339.022"/>
<polygon fill="black" stroke="black" points="529.47,-339.492 528,-329 522.606,-338.119 529.47,-339.492"/>
</g>
<!-- N8&#45;&gt;N9 -->
<g id="edge12" class="edge"><title>N8:S&#45;&gt;N9:I1</title>
<path fill="none" stroke="black" d="M278,-372C278,-327.214 363.109,-369.53 377.073,-339.034"/>
<polygon fill="black" stroke="black" points="380.551,-339.481 379,-329 373.676,-338.16 380.551,-339.481"/>
</g>
<!-- N9&#45;&gt;N10 -->
<g id="edge14" class="edge"><title>N9:S&#45;&gt;N10:I0</title>
<path fill="none" stroke="black" d="M319,-310C319,-294.771 319,-288.643 319,-277.112"/>
<polygon fill="black" stroke="black" points="322.5,-277 319,-267 315.5,-277 322.5,-277"/>
</g>
<!-- N11 -->
<g id="node12" class="node"><title>N11</title>
<polygon fill="none" stroke="black" points="65.5723,-186.5 65.5723,-204.5 168.428,-204.5 168.428,-186.5 65.5723,-186.5"/>
<text text-anchor="middle" x="74.5723" y="-193.1" font-family="Times,serif" font-size="8.00"> </text>
<polyline fill="none" stroke="black" points="83.5723,-186.5 83.5723,-204.5 "/>
<text text-anchor="middle" x="98.5605" y="-193.1" font-family="Times,serif" font-size="8.00">^i10</text>
<polyline fill="none" stroke="black" points="113.549,-186.5 113.549,-204.5 "/>
<text text-anchor="middle" x="140.988" y="-193.1" font-family="Times,serif" font-size="8.00">i11 = region</text>
</g>
<!-- N10&#45;&gt;N11 -->
<g id="edge15" class="edge"><title>N10:CS&#45;&gt;N11:C0</title>
<path fill="none" stroke="black" stroke-dasharray="5,2" d="M214.356,-251.725C213.269,-250.403 211.962,-249.073 210,-248 163.579,-222.62 99,-257.906 99,-205"/>
<polygon fill="black" stroke="black" points="212.741,-254.855 223,-257.5 216.63,-249.034 212.741,-254.855"/>
</g>
<!-- N18 -->
<g id="node19" class="node"><title>N18</title>
<polygon fill="none" stroke="black" points="255.426,-186.5 255.426,-204.5 358.574,-204.5 358.574,-186.5 255.426,-186.5"/>
<text text-anchor="middle" x="264.426" y="-193.1" font-family="Times,serif" font-size="8.00"> </text>
<polyline fill="none" stroke="black" points="273.426,-186.5 273.426,-204.5 "/>
<text text-anchor="middle" x="288.414" y="-193.1" font-family="Times,serif" font-size="8.00">^i10</text>
<polyline fill="none" stroke="black" points="303.402,-186.5 303.402,-204.5 "/>
<text text-anchor="middle" x="330.988" y="-193.1" font-family="Times,serif" font-size="8.00">i18 = region</text>
</g>
<!-- N10&#45;&gt;N18 -->
<g id="edge27" class="edge"><title>N10:CS&#45;&gt;N18:C0</title>
<path fill="none" stroke="black" stroke-dasharray="5,2" d="M235.653,-238.053C246.639,-221.15 288,-231.907 288,-205"/>
<polygon fill="black" stroke="black" points="232.195,-237.436 233,-248 238.959,-239.24 232.195,-237.436"/>
</g>
<!-- N11&#45;&gt;N12 -->
<g id="edge16" class="edge"><title>N11:CS&#45;&gt;N12:C0</title>
<path fill="none" stroke="black" stroke-dasharray="5,2" d="M75.8985,-175.81C91.2437,-96.4968 298,-240.191 298,-143"/>
<polygon fill="black" stroke="black" points="72.3919,-175.731 75,-186 79.3649,-176.346 72.3919,-175.731"/>
</g>
<!-- N17 -->
<g id="node18" class="node"><title>N17</title>
<polygon fill="none" stroke="black" points="65.5684,-124.5 65.5684,-142.5 164.432,-142.5 164.432,-124.5 65.5684,-124.5"/>
<text text-anchor="middle" x="74.5684" y="-131.1" font-family="Times,serif" font-size="8.00"> </text>
<polyline fill="none" stroke="black" points="83.5684,-124.5 83.5684,-142.5 "/>
<text text-anchor="middle" x="98.4102" y="-131.1" font-family="Times,serif" font-size="8.00">^i11</text>
<polyline fill="none" stroke="black" points="113.252,-124.5 113.252,-142.5 "/>
<text text-anchor="middle" x="138.842" y="-131.1" font-family="Times,serif" font-size="8.00">i17 = jump</text>
</g>
<!-- N11&#45;&gt;N17 -->
<g id="edge26" class="edge"><title>N11:CS&#45;&gt;N17:C0</title>
<path fill="none" stroke="black" stroke-dasharray="5,2" d="M77.1226,-175.841C82.8164,-163.683 98,-160.609 98,-143"/>
<polygon fill="black" stroke="black" points="73.6192,-175.496 75,-186 80.4713,-176.927 73.6192,-175.496"/>
</g>
<!-- N12&#45;&gt;N13 -->
<g id="edge19" class="edge"><title>N12:CS&#45;&gt;N13:C0</title>
<path fill="none" stroke="black" stroke-dasharray="5,2" d="M275.908,-114.043C289.733,-83.7533 374,-125.411 374,-81"/>
<polygon fill="black" stroke="black" points="272.445,-113.52 274,-124 279.32,-114.838 272.445,-113.52"/>
</g>
<!-- N13&#45;&gt;N14 -->
<g id="edge23" class="edge"><title>N13:S&#45;&gt;N14:I1</title>
<path fill="none" stroke="black" d="M413,-62C413,44.4594 641.066,-117.663 656.211,-29.0392"/>
<polygon fill="black" stroke="black" points="659.706,-29.2436 657,-19 652.727,-28.6949 659.706,-29.2436"/>
</g>
<!-- N14&#45;&gt;N6 -->
<g id="edge6" class="edge"><title>N14:S&#45;&gt;N6:I1</title>
<path fill="none" stroke="black" d="M599,-19C599,-47.6417 631.203,-38.1085 647,-62 665.255,-89.6097 671,-99.4008 671,-132.5 671,-320.5 671,-320.5 671,-320.5 671,-367.617 661.492,-381.422 660.155,-423.854"/>
<polygon fill="black" stroke="black" points="656.654,-423.948 660,-434 663.653,-424.055 656.654,-423.948"/>
</g>
<!-- N15 -->
<g id="node16" class="node"><title>N15</title>
<polygon fill="none" stroke="black" points="524.641,-372.5 524.641,-390.5 605.359,-390.5 605.359,-372.5 524.641,-372.5"/>
<text text-anchor="middle" x="533.641" y="-379.1" font-family="Times,serif" font-size="8.00"> </text>
<polyline fill="none" stroke="black" points="542.641,-372.5 542.641,-390.5 "/>
<text text-anchor="middle" x="574" y="-379.1" font-family="Times,serif" font-size="8.00">i15 = literal(1)</text>
</g>
<!-- N15&#45;&gt;N16 -->
<g id="edge25" class="edge"><title>N15:S&#45;&gt;N16:I1</title>
<path fill="none" stroke="black" d="M574,-372C574,-354.558 559.477,-351.244 554.03,-339.1"/>
<polygon fill="black" stroke="black" points="557.402,-338.114 552,-329 550.539,-339.494 557.402,-338.114"/>
</g>
<!-- N16&#45;&gt;N7 -->
<g id="edge9" class="edge"><title>N16:S&#45;&gt;N7:I1</title>
<path fill="none" stroke="black" d="M494,-329C494,-344.229 494,-350.357 494,-361.888"/>
<polygon fill="black" stroke="black" points="490.5,-362 494,-372 497.5,-362 490.5,-362"/>
</g>
<!-- N17&#45;&gt;N5 -->
<g id="edge3" class="edge"><title>N17:CS&#45;&gt;N5:C1</title>
<path fill="none" stroke="black" stroke-dasharray="5,2" d="M54.7244,-134.118C2.80894,-140.671 0,-198.292 0,-256.5 0,-382.5 0,-382.5 0,-382.5 0,-441.899 242,-436.601 242,-496"/>
<polygon fill="black" stroke="black" points="55.2281,-137.594 65,-133.5 54.8079,-130.607 55.2281,-137.594"/>
</g>
<!-- N19 -->
<g id="node20" class="node"><title>N19</title>
<polygon fill="none" stroke="black" points="446.646,-124.5 446.646,-142.5 541.354,-142.5 541.354,-124.5 446.646,-124.5"/>
<text text-anchor="middle" x="455.646" y="-131.1" font-family="Times,serif" font-size="8.00"> </text>
<polyline fill="none" stroke="black" points="464.646,-124.5 464.646,-142.5 "/>
<text text-anchor="middle" x="479.635" y="-131.1" font-family="Times,serif" font-size="8.00">^i18</text>
<polyline fill="none" stroke="black" points="494.623,-124.5 494.623,-142.5 "/>
<text text-anchor="middle" x="517.988" y="-131.1" font-family="Times,serif" font-size="8.00">i19 = exit</text>
</g>
<!-- N18&#45;&gt;N19 -->
<g id="edge28" class="edge"><title>N18:CS&#45;&gt;N19:C0</title>
<path fill="none" stroke="black" stroke-dasharray="5,2" d="M264.963,-175.647C280.545,-99.6687 480,-237.06 480,-143"/>
<polygon fill="black" stroke="black" points="261.441,-175.719 264,-186 268.411,-176.367 261.441,-175.719"/>
</g>
</g>
</svg>
