<svg version="1.1" baseProfile="full" xmlns="http://www.w3.org/2000/svg" onmouseout="clear()">
<defs >
<marker id="arrow" refX="0" refY="2" class="arrow-mark" markerUnits="strokeWidth" markerWidth="6" markerHeight="6" orient="auto">
<path d="M 0 0 L 5 2 L 0 4 Z">
</path>
</marker>
</defs>
<style >
<![CDATA[
    @font-face {
      font-family: "Raleway";
      font-style: normal;
      font-weight: 400;
      src: local("Raleway"),
      url(http://themes.googleusercontent.com/static/fonts/raleway/v6/cIFypx4yrWPDz3zOxk7hIQLUuEpTyoUstqEm5AMlJo4.woff) format("woff");
    }
    .annotation-wrap { fill: transparent; stroke: #333 }
    .instruction-marker { fill: transparent; }
    .instruction-marker-text, .instruction-text {
      font-family: 'Raleway';
      dominant-baseline': middle;
    }
    .instruction-marker-text {
      font-size: 8px;
    }
    .arrow { stroke: #333; fill: transparent; }
    .arrow-mark { fill: #333; }
    .block-fill { fill: #4CBFCB; }
    .interval-empty { fill: #A4EEE8; }
    .range-physical { fill: #FD6218; }
    .range-normal { fill: #FBA42B; }
    .use-any { fill: #F6E575; }
    .use-reg { fill: #315B8F; }
    .use-fixed { fill: #FD6210; }
    .highlight-interval { fill: #16DDD7; }
    .highlight-output { fill: #A40B04; }
    .highlight-input { fill: #0CF471; }
    .highlight-tmp { fill: #601D61; }
  ]]>
</style>
<script type="text/ecmascript">
<![CDATA[var instructions={"0":{"inputs":[],"kind":"Zero","id":0,"block":0,"output":1,"temporary":[]},"2":{"block":0,"temporary":[],"output":0,"inputs":[1],"id":2,"kind":"~to_phi"},"4":{"id":4,"kind":"Goto","block":0,"inputs":[],"temporary":[],"output":null},"6":{"temporary":[],"block":1,"id":6,"inputs":[],"kind":"Ten","output":2},"8":{"output":null,"id":8,"temporary":[3],"inputs":[0,2],"block":1,"kind":"BranchIfBigger"},"10":{"inputs":[0],"block":2,"output":4,"kind":"Increment","temporary":[],"id":10},"12":{"temporary":[],"inputs":[4],"block":2,"id":12,"kind":"~to_phi","output":0},"14":{"block":2,"inputs":[],"output":null,"kind":"Goto","temporary":[],"id":14},"16":{"block":3,"inputs":[],"temporary":[],"kind":"PrintHello","id":16,"output":null},"18":{"inputs":[],"temporary":[],"block":3,"id":18,"kind":"Return","output":null}}]]>
</script>
<script type="text/ecmascript">
<![CDATA[
    var highlighted = [];
    function each(className, cb) {
      Array.prototype.forEach.call(
        document.getElementsByClassName(className) || [],
        cb
      );
    }
    function highlight(className, color) {
      each(className, function(i) {
        i.classList.add('highlight-' + color);
        highlighted.push(function() {
          i.classList.remove('highlight-' + color);
        });
      });
    }
    function h(what, color, noclear) {
      if (!color) color = 'interval';
      if (!noclear) clear();

      // Highlight row
      if (what.r !== undefined) highlight('r-' + what.r, color);

      // Highlight column
      if (what.c !== undefined) {
        highlight('c-' + what.c, color);

        // Highlight outputs and inputs
        var instr = instructions[what.c];
        if (instr) {
          if (instr.output !== null) {
            h({ r: instr.output }, 'output', true);
          }
          instr.inputs.forEach(function(input, i) {
            h({ r: input }, 'input', true);
          });

          if (instr.temporary.length > 0) {
            instr.temporary.forEach(function(tmp, i) {
              h({ r: tmp }, 'tmp', true);
            });
          }
        }
      }
    }
    function clear() {
      for (var i = highlighted.length - 1; i >= 0; i--) {
        highlighted[i]();
      }
      highlighted = [];
    }
  ]]>
</script>
<rect x="4" y="6" width="280" height="192" class="annotation-wrap">
</rect>
<rect x="8" y="8" width="16" height="16" class="range-physical">
</rect>
<text x="32" y="20" font-family="Raleway" dominant-baseline="middle">
Physical register range
</text>
<rect x="8" y="32" width="16" height="16" class="range-normal">
</rect>
<text x="32" y="44" font-family="Raleway" dominant-baseline="middle">
Normal range
</text>
<rect x="8" y="56" width="16" height="16" class="use-any">
</rect>
<text x="32" y="68" font-family="Raleway" dominant-baseline="middle">
Any use
</text>
<rect x="8" y="80" width="16" height="16" class="use-reg">
</rect>
<text x="32" y="92" font-family="Raleway" dominant-baseline="middle">
Register use
</text>
<rect x="8" y="104" width="16" height="16" class="use-fixed">
</rect>
<text x="32" y="116" font-family="Raleway" dominant-baseline="middle">
Use of fixed register
</text>
<rect x="8" y="128" width="16" height="16" class="highlight-output">
</rect>
<text x="32" y="140" font-family="Raleway" dominant-baseline="middle">
Instruction's output
</text>
<rect x="8" y="152" width="16" height="16" class="highlight-input">
</rect>
<text x="32" y="164" font-family="Raleway" dominant-baseline="middle">
Instruction's input
</text>
<rect x="8" y="176" width="16" height="16" class="highlight-tmp">
</rect>
<text x="32" y="188" font-family="Raleway" dominant-baseline="middle">
Instruction's temporary
</text>
<rect class="instruction-marker c-0" x="8" y="216" width="16" height="16">
</rect>
<text class="instruction-marker-text" x="12" y="226">
0
</text>
<text class="instruction-text" x="28" y="226">
<tspan class="r-1">v1</tspan> = Zero()
</text>
<rect class="instruction-marker c-2" x="8" y="236" width="16" height="16">
</rect>
<text class="instruction-marker-text" x="12" y="246">
2
</text>
<text class="instruction-text" x="28" y="246">
<tspan class="r-0">v0</tspan> = ~to_phi(<tspan class="r-1">v1</tspan>)
</text>
<rect class="instruction-marker c-4" x="8" y="256" width="16" height="16">
</rect>
<text class="instruction-marker-text" x="12" y="266">
4
</text>
<text class="instruction-text" x="28" y="266">
Goto()
</text>
<rect class="instruction-marker c-6" x="8" y="276" width="16" height="16">
</rect>
<text class="instruction-marker-text" x="12" y="286">
6
</text>
<text class="instruction-text" x="28" y="286">
<tspan class="r-2">v2</tspan> = Ten()
</text>
<rect class="instruction-marker c-8" x="8" y="296" width="16" height="16">
</rect>
<text class="instruction-marker-text" x="12" y="306">
8
</text>
<text class="instruction-text" x="28" y="306">
BranchIfBigger(<tspan class="r-0">v0</tspan>, <tspan class="r-2">v2</tspan>) | tmp: <tspan class="r-3">v3</tspan>
</text>
<rect class="instruction-marker c-10" x="8" y="316" width="16" height="16">
</rect>
<text class="instruction-marker-text" x="12" y="326">
10
</text>
<text class="instruction-text" x="28" y="326">
<tspan class="r-4">v4</tspan> = Increment(<tspan class="r-0">v0</tspan>)
</text>
<rect class="instruction-marker c-12" x="8" y="336" width="16" height="16">
</rect>
<text class="instruction-marker-text" x="12" y="346">
12
</text>
<text class="instruction-text" x="28" y="346">
<tspan class="r-0">v0</tspan> = ~to_phi(<tspan class="r-4">v4</tspan>)
</text>
<rect class="instruction-marker c-14" x="8" y="356" width="16" height="16">
</rect>
<text class="instruction-marker-text" x="12" y="366">
14
</text>
<text class="instruction-text" x="28" y="366">
Goto()
</text>
<rect class="instruction-marker c-16" x="8" y="376" width="16" height="16">
</rect>
<text class="instruction-marker-text" x="12" y="386">
16
</text>
<text class="instruction-text" x="28" y="386">
PrintHello()
</text>
<rect class="instruction-marker c-18" x="8" y="396" width="16" height="16">
</rect>
<text class="instruction-marker-text" x="12" y="406">
18
</text>
<text class="instruction-text" x="28" y="406">
Return()
</text>
<rect x="288" y="8" rx="3" ry="3" width="94" height="171" class="block-fill">
</rect>
<text dominant-baseline="middle" font-family="Raleway" x="291" y="20">
0
</text>
<rect x="384" y="8" rx="3" ry="3" width="62" height="171" class="block-fill">
</rect>
<text dominant-baseline="middle" font-family="Raleway" x="387" y="20">
1
</text>
<rect x="448" y="8" rx="3" ry="3" width="94" height="171" class="block-fill">
</rect>
<text dominant-baseline="middle" font-family="Raleway" x="451" y="20">
2
</text>
<rect x="544" y="8" rx="3" ry="3" width="62" height="171" class="block-fill">
</rect>
<text dominant-baseline="middle" font-family="Raleway" x="547" y="20">
3
</text>
<rect class="r-0 c-0 interval-empty" onmouseover="h({r:0,c:0})" x="288" y="32" width="16" height="14">
</rect>
<rect class="r-0 c-1 interval-empty" onmouseover="h({r:0,c:1})" x="304" y="32" width="16" height="14">
</rect>
<rect class="r-0 c-2 interval-empty" onmouseover="h({r:0,c:2})" x="320" y="32" width="16" height="14">
</rect>
<rect class="r-0 c-3 interval-empty" onmouseover="h({r:0,c:3})" x="336" y="32" width="16" height="14">
</rect>
<rect class="r-0 c-4 interval-empty" onmouseover="h({r:0,c:4})" x="352" y="32" width="16" height="14">
</rect>
<rect class="r-0 c-5 interval-empty" onmouseover="h({r:0,c:5})" x="368" y="32" width="14" height="14">
</rect>
<rect class="r-0 c-6 interval-empty" onmouseover="h({r:0,c:6})" x="384" y="32" width="16" height="14">
</rect>
<rect class="r-0 c-7 interval-empty" onmouseover="h({r:0,c:7})" x="400" y="32" width="16" height="14">
</rect>
<rect class="r-0 c-8 interval-empty" onmouseover="h({r:0,c:8})" x="416" y="32" width="16" height="14">
</rect>
<rect class="r-0 c-9 interval-empty" onmouseover="h({r:0,c:9})" x="432" y="32" width="14" height="14">
</rect>
<rect class="r-0 c-10 interval-empty" onmouseover="h({r:0,c:10})" x="448" y="32" width="16" height="14">
</rect>
<rect class="r-0 c-11 interval-empty" onmouseover="h({r:0,c:11})" x="464" y="32" width="16" height="14">
</rect>
<rect class="r-0 c-12 interval-empty" onmouseover="h({r:0,c:12})" x="480" y="32" width="16" height="14">
</rect>
<rect class="r-0 c-13 interval-empty" onmouseover="h({r:0,c:13})" x="496" y="32" width="16" height="14">
</rect>
<rect class="r-0 c-14 interval-empty" onmouseover="h({r:0,c:14})" x="512" y="32" width="16" height="14">
</rect>
<rect class="r-0 c-15 interval-empty" onmouseover="h({r:0,c:15})" x="528" y="32" width="14" height="14">
</rect>
<rect class="r-0 c-16 interval-empty" onmouseover="h({r:0,c:16})" x="544" y="32" width="16" height="14">
</rect>
<rect class="r-0 c-17 interval-empty" onmouseover="h({r:0,c:17})" x="560" y="32" width="16" height="14">
</rect>
<rect class="r-0 c-18 interval-empty" onmouseover="h({r:0,c:18})" x="576" y="32" width="16" height="14">
</rect>
<rect class="r-0 c-19 interval-empty" onmouseover="h({r:0,c:19})" x="592" y="32" width="14" height="14">
</rect>
<rect onmouseover="h({r:0,c:2})" x="320" y="32" width="16" height="14" class="range-normal">
</rect>
<rect onmouseover="h({r:0,c:3})" x="336" y="32" width="16" height="14" class="range-normal">
</rect>
<rect onmouseover="h({r:0,c:4})" x="352" y="32" width="16" height="14" class="range-normal">
</rect>
<rect onmouseover="h({r:0,c:5})" x="368" y="32" width="16" height="14" class="range-normal">
</rect>
<rect onmouseover="h({r:0,c:6})" x="384" y="32" width="16" height="14" class="range-normal">
</rect>
<rect onmouseover="h({r:0,c:7})" x="400" y="32" width="16" height="14" class="range-normal">
</rect>
<rect onmouseover="h({r:0,c:8})" x="416" y="32" width="16" height="14" class="range-normal">
</rect>
<rect onmouseover="h({r:0,c:9})" x="432" y="32" width="14" height="14" class="range-normal">
</rect>
<rect onmouseover="h({r:0,c:12})" x="480" y="32" width="16" height="14" class="range-normal">
</rect>
<rect onmouseover="h({r:0,c:13})" x="496" y="32" width="16" height="14" class="range-normal">
</rect>
<rect onmouseover="h({r:0,c:14})" x="512" y="32" width="16" height="14" class="range-normal">
</rect>
<rect onmouseover="h({r:0,c:15})" x="528" y="32" width="14" height="14" class="range-normal">
</rect>
<rect onmouseover="h({r:0,c: 12})" x="480" y="32" width="5" height="14" class="use-any">
</rect>
<rect onmouseover="h({r:0,c: 10})" x="448" y="32" width="5" height="14" class="use-any">
</rect>
<rect onmouseover="h({r:0,c: 8})" x="416" y="32" width="5" height="14" class="use-any">
</rect>
<rect onmouseover="h({r:0,c: 2})" x="320" y="32" width="5" height="14" class="use-any">
</rect>
<rect class="r-1 c-0 interval-empty" onmouseover="h({r:1,c:0})" x="288" y="48" width="16" height="14">
</rect>
<rect class="r-1 c-1 interval-empty" onmouseover="h({r:1,c:1})" x="304" y="48" width="16" height="14">
</rect>
<rect class="r-1 c-2 interval-empty" onmouseover="h({r:1,c:2})" x="320" y="48" width="16" height="14">
</rect>
<rect class="r-1 c-3 interval-empty" onmouseover="h({r:1,c:3})" x="336" y="48" width="16" height="14">
</rect>
<rect class="r-1 c-4 interval-empty" onmouseover="h({r:1,c:4})" x="352" y="48" width="16" height="14">
</rect>
<rect class="r-1 c-5 interval-empty" onmouseover="h({r:1,c:5})" x="368" y="48" width="14" height="14">
</rect>
<rect class="r-1 c-6 interval-empty" onmouseover="h({r:1,c:6})" x="384" y="48" width="16" height="14">
</rect>
<rect class="r-1 c-7 interval-empty" onmouseover="h({r:1,c:7})" x="400" y="48" width="16" height="14">
</rect>
<rect class="r-1 c-8 interval-empty" onmouseover="h({r:1,c:8})" x="416" y="48" width="16" height="14">
</rect>
<rect class="r-1 c-9 interval-empty" onmouseover="h({r:1,c:9})" x="432" y="48" width="14" height="14">
</rect>
<rect class="r-1 c-10 interval-empty" onmouseover="h({r:1,c:10})" x="448" y="48" width="16" height="14">
</rect>
<rect class="r-1 c-11 interval-empty" onmouseover="h({r:1,c:11})" x="464" y="48" width="16" height="14">
</rect>
<rect class="r-1 c-12 interval-empty" onmouseover="h({r:1,c:12})" x="480" y="48" width="16" height="14">
</rect>
<rect class="r-1 c-13 interval-empty" onmouseover="h({r:1,c:13})" x="496" y="48" width="16" height="14">
</rect>
<rect class="r-1 c-14 interval-empty" onmouseover="h({r:1,c:14})" x="512" y="48" width="16" height="14">
</rect>
<rect class="r-1 c-15 interval-empty" onmouseover="h({r:1,c:15})" x="528" y="48" width="14" height="14">
</rect>
<rect class="r-1 c-16 interval-empty" onmouseover="h({r:1,c:16})" x="544" y="48" width="16" height="14">
</rect>
<rect class="r-1 c-17 interval-empty" onmouseover="h({r:1,c:17})" x="560" y="48" width="16" height="14">
</rect>
<rect class="r-1 c-18 interval-empty" onmouseover="h({r:1,c:18})" x="576" y="48" width="16" height="14">
</rect>
<rect class="r-1 c-19 interval-empty" onmouseover="h({r:1,c:19})" x="592" y="48" width="14" height="14">
</rect>
<rect onmouseover="h({r:1,c:0})" x="288" y="48" width="16" height="14" class="range-normal">
</rect>
<rect onmouseover="h({r:1,c:1})" x="304" y="48" width="14" height="14" class="range-normal">
</rect>
<rect onmouseover="h({r:1,c: 2})" x="320" y="48" width="5" height="14" class="use-any">
</rect>
<rect onmouseover="h({r:1,c: 0})" x="288" y="48" width="5" height="14" class="use-reg">
</rect>
<rect class="r-2 c-0 interval-empty" onmouseover="h({r:2,c:0})" x="288" y="64" width="16" height="14">
</rect>
<rect class="r-2 c-1 interval-empty" onmouseover="h({r:2,c:1})" x="304" y="64" width="16" height="14">
</rect>
<rect class="r-2 c-2 interval-empty" onmouseover="h({r:2,c:2})" x="320" y="64" width="16" height="14">
</rect>
<rect class="r-2 c-3 interval-empty" onmouseover="h({r:2,c:3})" x="336" y="64" width="16" height="14">
</rect>
<rect class="r-2 c-4 interval-empty" onmouseover="h({r:2,c:4})" x="352" y="64" width="16" height="14">
</rect>
<rect class="r-2 c-5 interval-empty" onmouseover="h({r:2,c:5})" x="368" y="64" width="14" height="14">
</rect>
<rect class="r-2 c-6 interval-empty" onmouseover="h({r:2,c:6})" x="384" y="64" width="16" height="14">
</rect>
<rect class="r-2 c-7 interval-empty" onmouseover="h({r:2,c:7})" x="400" y="64" width="16" height="14">
</rect>
<rect class="r-2 c-8 interval-empty" onmouseover="h({r:2,c:8})" x="416" y="64" width="16" height="14">
</rect>
<rect class="r-2 c-9 interval-empty" onmouseover="h({r:2,c:9})" x="432" y="64" width="14" height="14">
</rect>
<rect class="r-2 c-10 interval-empty" onmouseover="h({r:2,c:10})" x="448" y="64" width="16" height="14">
</rect>
<rect class="r-2 c-11 interval-empty" onmouseover="h({r:2,c:11})" x="464" y="64" width="16" height="14">
</rect>
<rect class="r-2 c-12 interval-empty" onmouseover="h({r:2,c:12})" x="480" y="64" width="16" height="14">
</rect>
<rect class="r-2 c-13 interval-empty" onmouseover="h({r:2,c:13})" x="496" y="64" width="16" height="14">
</rect>
<rect class="r-2 c-14 interval-empty" onmouseover="h({r:2,c:14})" x="512" y="64" width="16" height="14">
</rect>
<rect class="r-2 c-15 interval-empty" onmouseover="h({r:2,c:15})" x="528" y="64" width="14" height="14">
</rect>
<rect class="r-2 c-16 interval-empty" onmouseover="h({r:2,c:16})" x="544" y="64" width="16" height="14">
</rect>
<rect class="r-2 c-17 interval-empty" onmouseover="h({r:2,c:17})" x="560" y="64" width="16" height="14">
</rect>
<rect class="r-2 c-18 interval-empty" onmouseover="h({r:2,c:18})" x="576" y="64" width="16" height="14">
</rect>
<rect class="r-2 c-19 interval-empty" onmouseover="h({r:2,c:19})" x="592" y="64" width="14" height="14">
</rect>
<rect onmouseover="h({r:2,c:6})" x="384" y="64" width="16" height="14" class="range-normal">
</rect>
<rect onmouseover="h({r:2,c:7})" x="400" y="64" width="14" height="14" class="range-normal">
</rect>
<rect onmouseover="h({r:2,c: 8})" x="416" y="64" width="5" height="14" class="use-any">
</rect>
<rect onmouseover="h({r:2,c: 6})" x="384" y="64" width="5" height="14" class="use-reg">
</rect>
<rect class="r-3 c-0 interval-empty" onmouseover="h({r:3,c:0})" x="288" y="80" width="16" height="14">
</rect>
<rect class="r-3 c-1 interval-empty" onmouseover="h({r:3,c:1})" x="304" y="80" width="16" height="14">
</rect>
<rect class="r-3 c-2 interval-empty" onmouseover="h({r:3,c:2})" x="320" y="80" width="16" height="14">
</rect>
<rect class="r-3 c-3 interval-empty" onmouseover="h({r:3,c:3})" x="336" y="80" width="16" height="14">
</rect>
<rect class="r-3 c-4 interval-empty" onmouseover="h({r:3,c:4})" x="352" y="80" width="16" height="14">
</rect>
<rect class="r-3 c-5 interval-empty" onmouseover="h({r:3,c:5})" x="368" y="80" width="14" height="14">
</rect>
<rect class="r-3 c-6 interval-empty" onmouseover="h({r:3,c:6})" x="384" y="80" width="16" height="14">
</rect>
<rect class="r-3 c-7 interval-empty" onmouseover="h({r:3,c:7})" x="400" y="80" width="16" height="14">
</rect>
<rect class="r-3 c-8 interval-empty" onmouseover="h({r:3,c:8})" x="416" y="80" width="16" height="14">
</rect>
<rect class="r-3 c-9 interval-empty" onmouseover="h({r:3,c:9})" x="432" y="80" width="14" height="14">
</rect>
<rect class="r-3 c-10 interval-empty" onmouseover="h({r:3,c:10})" x="448" y="80" width="16" height="14">
</rect>
<rect class="r-3 c-11 interval-empty" onmouseover="h({r:3,c:11})" x="464" y="80" width="16" height="14">
</rect>
<rect class="r-3 c-12 interval-empty" onmouseover="h({r:3,c:12})" x="480" y="80" width="16" height="14">
</rect>
<rect class="r-3 c-13 interval-empty" onmouseover="h({r:3,c:13})" x="496" y="80" width="16" height="14">
</rect>
<rect class="r-3 c-14 interval-empty" onmouseover="h({r:3,c:14})" x="512" y="80" width="16" height="14">
</rect>
<rect class="r-3 c-15 interval-empty" onmouseover="h({r:3,c:15})" x="528" y="80" width="14" height="14">
</rect>
<rect class="r-3 c-16 interval-empty" onmouseover="h({r:3,c:16})" x="544" y="80" width="16" height="14">
</rect>
<rect class="r-3 c-17 interval-empty" onmouseover="h({r:3,c:17})" x="560" y="80" width="16" height="14">
</rect>
<rect class="r-3 c-18 interval-empty" onmouseover="h({r:3,c:18})" x="576" y="80" width="16" height="14">
</rect>
<rect class="r-3 c-19 interval-empty" onmouseover="h({r:3,c:19})" x="592" y="80" width="14" height="14">
</rect>
<rect onmouseover="h({r:3,c:8})" x="416" y="80" width="14" height="14" class="range-normal">
</rect>
<rect onmouseover="h({r:3,c: 8})" x="416" y="80" width="5" height="14" class="use-reg">
</rect>
<rect class="r-4 c-0 interval-empty" onmouseover="h({r:4,c:0})" x="288" y="96" width="16" height="14">
</rect>
<rect class="r-4 c-1 interval-empty" onmouseover="h({r:4,c:1})" x="304" y="96" width="16" height="14">
</rect>
<rect class="r-4 c-2 interval-empty" onmouseover="h({r:4,c:2})" x="320" y="96" width="16" height="14">
</rect>
<rect class="r-4 c-3 interval-empty" onmouseover="h({r:4,c:3})" x="336" y="96" width="16" height="14">
</rect>
<rect class="r-4 c-4 interval-empty" onmouseover="h({r:4,c:4})" x="352" y="96" width="16" height="14">
</rect>
<rect class="r-4 c-5 interval-empty" onmouseover="h({r:4,c:5})" x="368" y="96" width="14" height="14">
</rect>
<rect class="r-4 c-6 interval-empty" onmouseover="h({r:4,c:6})" x="384" y="96" width="16" height="14">
</rect>
<rect class="r-4 c-7 interval-empty" onmouseover="h({r:4,c:7})" x="400" y="96" width="16" height="14">
</rect>
<rect class="r-4 c-8 interval-empty" onmouseover="h({r:4,c:8})" x="416" y="96" width="16" height="14">
</rect>
<rect class="r-4 c-9 interval-empty" onmouseover="h({r:4,c:9})" x="432" y="96" width="14" height="14">
</rect>
<rect class="r-4 c-10 interval-empty" onmouseover="h({r:4,c:10})" x="448" y="96" width="16" height="14">
</rect>
<rect class="r-4 c-11 interval-empty" onmouseover="h({r:4,c:11})" x="464" y="96" width="16" height="14">
</rect>
<rect class="r-4 c-12 interval-empty" onmouseover="h({r:4,c:12})" x="480" y="96" width="16" height="14">
</rect>
<rect class="r-4 c-13 interval-empty" onmouseover="h({r:4,c:13})" x="496" y="96" width="16" height="14">
</rect>
<rect class="r-4 c-14 interval-empty" onmouseover="h({r:4,c:14})" x="512" y="96" width="16" height="14">
</rect>
<rect class="r-4 c-15 interval-empty" onmouseover="h({r:4,c:15})" x="528" y="96" width="14" height="14">
</rect>
<rect class="r-4 c-16 interval-empty" onmouseover="h({r:4,c:16})" x="544" y="96" width="16" height="14">
</rect>
<rect class="r-4 c-17 interval-empty" onmouseover="h({r:4,c:17})" x="560" y="96" width="16" height="14">
</rect>
<rect class="r-4 c-18 interval-empty" onmouseover="h({r:4,c:18})" x="576" y="96" width="16" height="14">
</rect>
<rect class="r-4 c-19 interval-empty" onmouseover="h({r:4,c:19})" x="592" y="96" width="14" height="14">
</rect>
<rect onmouseover="h({r:4,c:10})" x="448" y="96" width="16" height="14" class="range-normal">
</rect>
<rect onmouseover="h({r:4,c:11})" x="464" y="96" width="14" height="14" class="range-normal">
</rect>
<rect onmouseover="h({r:4,c: 12})" x="480" y="96" width="5" height="14" class="use-any">
</rect>
<rect onmouseover="h({r:4,c: 10})" x="448" y="96" width="5" height="14" class="use-reg">
</rect>
<rect class="r-5 c-0 interval-empty" onmouseover="h({r:5,c:0})" x="288" y="112" width="16" height="14">
</rect>
<rect class="r-5 c-1 interval-empty" onmouseover="h({r:5,c:1})" x="304" y="112" width="16" height="14">
</rect>
<rect class="r-5 c-2 interval-empty" onmouseover="h({r:5,c:2})" x="320" y="112" width="16" height="14">
</rect>
<rect class="r-5 c-3 interval-empty" onmouseover="h({r:5,c:3})" x="336" y="112" width="16" height="14">
</rect>
<rect class="r-5 c-4 interval-empty" onmouseover="h({r:5,c:4})" x="352" y="112" width="16" height="14">
</rect>
<rect class="r-5 c-5 interval-empty" onmouseover="h({r:5,c:5})" x="368" y="112" width="14" height="14">
</rect>
<rect class="r-5 c-6 interval-empty" onmouseover="h({r:5,c:6})" x="384" y="112" width="16" height="14">
</rect>
<rect class="r-5 c-7 interval-empty" onmouseover="h({r:5,c:7})" x="400" y="112" width="16" height="14">
</rect>
<rect class="r-5 c-8 interval-empty" onmouseover="h({r:5,c:8})" x="416" y="112" width="16" height="14">
</rect>
<rect class="r-5 c-9 interval-empty" onmouseover="h({r:5,c:9})" x="432" y="112" width="14" height="14">
</rect>
<rect class="r-5 c-10 interval-empty" onmouseover="h({r:5,c:10})" x="448" y="112" width="16" height="14">
</rect>
<rect class="r-5 c-11 interval-empty" onmouseover="h({r:5,c:11})" x="464" y="112" width="16" height="14">
</rect>
<rect class="r-5 c-12 interval-empty" onmouseover="h({r:5,c:12})" x="480" y="112" width="16" height="14">
</rect>
<rect class="r-5 c-13 interval-empty" onmouseover="h({r:5,c:13})" x="496" y="112" width="16" height="14">
</rect>
<rect class="r-5 c-14 interval-empty" onmouseover="h({r:5,c:14})" x="512" y="112" width="16" height="14">
</rect>
<rect class="r-5 c-15 interval-empty" onmouseover="h({r:5,c:15})" x="528" y="112" width="14" height="14">
</rect>
<rect class="r-5 c-16 interval-empty" onmouseover="h({r:5,c:16})" x="544" y="112" width="16" height="14">
</rect>
<rect class="r-5 c-17 interval-empty" onmouseover="h({r:5,c:17})" x="560" y="112" width="16" height="14">
</rect>
<rect class="r-5 c-18 interval-empty" onmouseover="h({r:5,c:18})" x="576" y="112" width="16" height="14">
</rect>
<rect class="r-5 c-19 interval-empty" onmouseover="h({r:5,c:19})" x="592" y="112" width="14" height="14">
</rect>
<rect onmouseover="h({r:5,c:16})" x="544" y="112" width="14" height="14" class="range-physical">
</rect>
<rect class="r-6 c-0 interval-empty" onmouseover="h({r:6,c:0})" x="288" y="128" width="16" height="14">
</rect>
<rect class="r-6 c-1 interval-empty" onmouseover="h({r:6,c:1})" x="304" y="128" width="16" height="14">
</rect>
<rect class="r-6 c-2 interval-empty" onmouseover="h({r:6,c:2})" x="320" y="128" width="16" height="14">
</rect>
<rect class="r-6 c-3 interval-empty" onmouseover="h({r:6,c:3})" x="336" y="128" width="16" height="14">
</rect>
<rect class="r-6 c-4 interval-empty" onmouseover="h({r:6,c:4})" x="352" y="128" width="16" height="14">
</rect>
<rect class="r-6 c-5 interval-empty" onmouseover="h({r:6,c:5})" x="368" y="128" width="14" height="14">
</rect>
<rect class="r-6 c-6 interval-empty" onmouseover="h({r:6,c:6})" x="384" y="128" width="16" height="14">
</rect>
<rect class="r-6 c-7 interval-empty" onmouseover="h({r:6,c:7})" x="400" y="128" width="16" height="14">
</rect>
<rect class="r-6 c-8 interval-empty" onmouseover="h({r:6,c:8})" x="416" y="128" width="16" height="14">
</rect>
<rect class="r-6 c-9 interval-empty" onmouseover="h({r:6,c:9})" x="432" y="128" width="14" height="14">
</rect>
<rect class="r-6 c-10 interval-empty" onmouseover="h({r:6,c:10})" x="448" y="128" width="16" height="14">
</rect>
<rect class="r-6 c-11 interval-empty" onmouseover="h({r:6,c:11})" x="464" y="128" width="16" height="14">
</rect>
<rect class="r-6 c-12 interval-empty" onmouseover="h({r:6,c:12})" x="480" y="128" width="16" height="14">
</rect>
<rect class="r-6 c-13 interval-empty" onmouseover="h({r:6,c:13})" x="496" y="128" width="16" height="14">
</rect>
<rect class="r-6 c-14 interval-empty" onmouseover="h({r:6,c:14})" x="512" y="128" width="16" height="14">
</rect>
<rect class="r-6 c-15 interval-empty" onmouseover="h({r:6,c:15})" x="528" y="128" width="14" height="14">
</rect>
<rect class="r-6 c-16 interval-empty" onmouseover="h({r:6,c:16})" x="544" y="128" width="16" height="14">
</rect>
<rect class="r-6 c-17 interval-empty" onmouseover="h({r:6,c:17})" x="560" y="128" width="16" height="14">
</rect>
<rect class="r-6 c-18 interval-empty" onmouseover="h({r:6,c:18})" x="576" y="128" width="16" height="14">
</rect>
<rect class="r-6 c-19 interval-empty" onmouseover="h({r:6,c:19})" x="592" y="128" width="14" height="14">
</rect>
<rect onmouseover="h({r:6,c:16})" x="544" y="128" width="14" height="14" class="range-physical">
</rect>
<rect class="r-7 c-0 interval-empty" onmouseover="h({r:7,c:0})" x="288" y="144" width="16" height="14">
</rect>
<rect class="r-7 c-1 interval-empty" onmouseover="h({r:7,c:1})" x="304" y="144" width="16" height="14">
</rect>
<rect class="r-7 c-2 interval-empty" onmouseover="h({r:7,c:2})" x="320" y="144" width="16" height="14">
</rect>
<rect class="r-7 c-3 interval-empty" onmouseover="h({r:7,c:3})" x="336" y="144" width="16" height="14">
</rect>
<rect class="r-7 c-4 interval-empty" onmouseover="h({r:7,c:4})" x="352" y="144" width="16" height="14">
</rect>
<rect class="r-7 c-5 interval-empty" onmouseover="h({r:7,c:5})" x="368" y="144" width="14" height="14">
</rect>
<rect class="r-7 c-6 interval-empty" onmouseover="h({r:7,c:6})" x="384" y="144" width="16" height="14">
</rect>
<rect class="r-7 c-7 interval-empty" onmouseover="h({r:7,c:7})" x="400" y="144" width="16" height="14">
</rect>
<rect class="r-7 c-8 interval-empty" onmouseover="h({r:7,c:8})" x="416" y="144" width="16" height="14">
</rect>
<rect class="r-7 c-9 interval-empty" onmouseover="h({r:7,c:9})" x="432" y="144" width="14" height="14">
</rect>
<rect class="r-7 c-10 interval-empty" onmouseover="h({r:7,c:10})" x="448" y="144" width="16" height="14">
</rect>
<rect class="r-7 c-11 interval-empty" onmouseover="h({r:7,c:11})" x="464" y="144" width="16" height="14">
</rect>
<rect class="r-7 c-12 interval-empty" onmouseover="h({r:7,c:12})" x="480" y="144" width="16" height="14">
</rect>
<rect class="r-7 c-13 interval-empty" onmouseover="h({r:7,c:13})" x="496" y="144" width="16" height="14">
</rect>
<rect class="r-7 c-14 interval-empty" onmouseover="h({r:7,c:14})" x="512" y="144" width="16" height="14">
</rect>
<rect class="r-7 c-15 interval-empty" onmouseover="h({r:7,c:15})" x="528" y="144" width="14" height="14">
</rect>
<rect class="r-7 c-16 interval-empty" onmouseover="h({r:7,c:16})" x="544" y="144" width="16" height="14">
</rect>
<rect class="r-7 c-17 interval-empty" onmouseover="h({r:7,c:17})" x="560" y="144" width="16" height="14">
</rect>
<rect class="r-7 c-18 interval-empty" onmouseover="h({r:7,c:18})" x="576" y="144" width="16" height="14">
</rect>
<rect class="r-7 c-19 interval-empty" onmouseover="h({r:7,c:19})" x="592" y="144" width="14" height="14">
</rect>
<rect onmouseover="h({r:7,c:16})" x="544" y="144" width="14" height="14" class="range-physical">
</rect>
<rect class="r-8 c-0 interval-empty" onmouseover="h({r:8,c:0})" x="288" y="160" width="16" height="14">
</rect>
<rect class="r-8 c-1 interval-empty" onmouseover="h({r:8,c:1})" x="304" y="160" width="16" height="14">
</rect>
<rect class="r-8 c-2 interval-empty" onmouseover="h({r:8,c:2})" x="320" y="160" width="16" height="14">
</rect>
<rect class="r-8 c-3 interval-empty" onmouseover="h({r:8,c:3})" x="336" y="160" width="16" height="14">
</rect>
<rect class="r-8 c-4 interval-empty" onmouseover="h({r:8,c:4})" x="352" y="160" width="16" height="14">
</rect>
<rect class="r-8 c-5 interval-empty" onmouseover="h({r:8,c:5})" x="368" y="160" width="14" height="14">
</rect>
<rect class="r-8 c-6 interval-empty" onmouseover="h({r:8,c:6})" x="384" y="160" width="16" height="14">
</rect>
<rect class="r-8 c-7 interval-empty" onmouseover="h({r:8,c:7})" x="400" y="160" width="16" height="14">
</rect>
<rect class="r-8 c-8 interval-empty" onmouseover="h({r:8,c:8})" x="416" y="160" width="16" height="14">
</rect>
<rect class="r-8 c-9 interval-empty" onmouseover="h({r:8,c:9})" x="432" y="160" width="14" height="14">
</rect>
<rect class="r-8 c-10 interval-empty" onmouseover="h({r:8,c:10})" x="448" y="160" width="16" height="14">
</rect>
<rect class="r-8 c-11 interval-empty" onmouseover="h({r:8,c:11})" x="464" y="160" width="16" height="14">
</rect>
<rect class="r-8 c-12 interval-empty" onmouseover="h({r:8,c:12})" x="480" y="160" width="16" height="14">
</rect>
<rect class="r-8 c-13 interval-empty" onmouseover="h({r:8,c:13})" x="496" y="160" width="16" height="14">
</rect>
<rect class="r-8 c-14 interval-empty" onmouseover="h({r:8,c:14})" x="512" y="160" width="16" height="14">
</rect>
<rect class="r-8 c-15 interval-empty" onmouseover="h({r:8,c:15})" x="528" y="160" width="14" height="14">
</rect>
<rect class="r-8 c-16 interval-empty" onmouseover="h({r:8,c:16})" x="544" y="160" width="16" height="14">
</rect>
<rect class="r-8 c-17 interval-empty" onmouseover="h({r:8,c:17})" x="560" y="160" width="16" height="14">
</rect>
<rect class="r-8 c-18 interval-empty" onmouseover="h({r:8,c:18})" x="576" y="160" width="16" height="14">
</rect>
<rect class="r-8 c-19 interval-empty" onmouseover="h({r:8,c:19})" x="592" y="160" width="14" height="14">
</rect>
<rect onmouseover="h({r:8,c:16})" x="544" y="160" width="14" height="14" class="range-physical">
</rect>
<path d="M 382 96.5 C 378 96.5 378 96.5 379 96.5" class="arrow" stroke-width="2" marker-end="url(#arrow)">
</path>
<path d="M 446 96.5 C 442 96.5 442 96.5 443 96.5" class="arrow" stroke-width="2" marker-end="url(#arrow)">
</path>
<path d="M 446 182 C 492.5 200.29884391401353 492.5 200.29884391401353 539 182" class="arrow" stroke-width="2" marker-end="url(#arrow)">
</path>
<path d="M 542 182 C 465.5 216.41426189543375 465.5 216.41426189543375 389 182" class="arrow" stroke-width="2" marker-end="url(#arrow)">
</path>
</svg>
