<svg version="1.1" baseProfile="full" xmlns="http://www.w3.org/2000/svg" onmouseout="clear()">
<defs >
<marker id="arrow" refX="0" refY="2" fill="rgba(0,0,0,0.6)" markerUnits="strokeWidth" markerWidth="6" markerHeight="6" orient="auto">
<path d="M 0 0 L 5 2 L 0 4 Z">
</path>
</marker>
</defs>
<style >
@font-face {  font-family: "Raleway";  font-style: normal;  font-weight: 400;  src: local("Raleway"), url(http://themes.googleusercontent.com/static/fonts/raleway/v6/cIFypx4yrWPDz3zOxk7hIQLUuEpTyoUstqEm5AMlJo4.woff) format("woff");}
</style>
<text id="hint" x="8" y="16" dominant-baseline="central" font-family="Raleway">
 
</text>
<script type="text/ecmascript">
<![CDATA[var instructions={"0":{"inputs":[],"kind":"Zero","id":0,"block":0,"output":1,"temporary":[]},"2":{"block":0,"temporary":[],"output":0,"inputs":[1],"id":2,"kind":"~to_phi"},"4":{"id":4,"kind":"Goto","block":0,"inputs":[],"temporary":[],"output":null},"6":{"temporary":[],"block":1,"id":6,"inputs":[],"kind":"Ten","output":2},"8":{"output":null,"id":8,"temporary":[3],"inputs":[0,2],"block":1,"kind":"BranchIfBigger"},"10":{"inputs":[0],"block":2,"output":4,"kind":"Increment","temporary":[],"id":10},"12":{"temporary":[],"inputs":[4],"block":2,"id":12,"kind":"~to_phi","output":0},"14":{"block":2,"inputs":[],"output":null,"kind":"Goto","temporary":[],"id":14},"16":{"block":3,"inputs":[],"temporary":[],"kind":"PrintHello","id":16,"output":null},"18":{"inputs":[],"temporary":[],"block":3,"id":18,"kind":"Return","output":null}}]]>
</script>
<script type="text/ecmascript">
<![CDATA[var intervals=[{"uses":[{"pos":12,"kind":{"type":"any"}},{"pos":10,"kind":{"type":"any"}},{"pos":8,"kind":{"type":"any"}},{"pos":2,"kind":{"type":"any"}}],"physical":false,"ranges":[{"end":10,"start":2},{"start":12,"end":16}],"id":0,"value":"v","parent":null},{"uses":[{"pos":2,"kind":{"type":"any"}},{"pos":0,"kind":{"type":"reg"}}],"ranges":[{"end":2,"start":0}],"parent":null,"value":"v","id":1,"physical":false},{"id":2,"uses":[{"kind":{"type":"any"},"pos":8},{"pos":6,"kind":{"type":"reg"}}],"parent":null,"physical":false,"value":"v","ranges":[{"end":8,"start":6}]},{"id":3,"physical":false,"value":"v","ranges":[{"end":9,"start":8}],"uses":[{"kind":{"type":"reg"},"pos":8}],"parent":null},{"parent":null,"ranges":[{"start":10,"end":12}],"value":"v","uses":[{"kind":{"type":"any"},"pos":12},{"pos":10,"kind":{"type":"reg"}}],"physical":false,"id":4},{"physical":true,"value":"v","id":5,"uses":[],"parent":null,"ranges":[{"start":16,"end":17}]},{"id":6,"parent":null,"value":"v","uses":[],"ranges":[{"end":17,"start":16}],"physical":true},{"id":7,"parent":null,"uses":[],"value":"v","physical":true,"ranges":[{"start":16,"end":17}]},{"physical":true,"value":"v","ranges":[{"start":16,"end":17}],"parent":null,"id":8,"uses":[]}]]]>
</script>
<script type="text/ecmascript">
<![CDATA[

    var highlighted = [];
    function each(className, cb) {
      Array.prototype.forEach.call(
        document.getElementsByClassName(className) || [],
        cb
      );
    }
    function highlight(className, color) {
      each(className, function(i) {
        var fill = i.style.fill;
        i.style.fill = color;
        highlighted.push(function() {
          i.style.fill = fill;
        });
      });
    }
    function interval_to_str(i) {
      if (intervals[i].value === 'v') {
        return 'v' + i;
      } else {
        return intervals[i].value;
      }
    }
    function h(what, color, noclear) {
      if (!color) color = "#16DDD7"/*interval*/;
      if (!noclear) clear();

      // Highlight row
      if (what.r !== undefined) highlight('r-' + what.r, color);

      // Highlight column
      if (what.c !== undefined) {
        highlight('c-' + what.c, color);

        // Display hint and highlight outputs and inputs
        var instr = instructions[what.c];
        var hintText = what.c + ': ';
        if (instr) {
          if (instr.output !== null) {
            hintText += interval_to_str(instr.output) + '=';
            h({ r: instr.output }, "#A40B04"/*output*/, true);
          }
          hintText += instr.kind + '(';
          instr.inputs.forEach(function(input, i) {
            hintText += interval_to_str(input);
            if (i !== instr.inputs.length - 1) hintText += ', ';
            h({ r: input }, "#0CF471"/*input*/, true);
          });
          hintText += ')';

          if (instr.temporary.length > 0) {
            hintText += ' | tmp: ';
            instr.temporary.forEach(function(tmp, i) {
              hintText += interval_to_str(tmp);
              if (i !== instr.temporary.length - 1) hintText += ', ';
              h({ r: tmp }, "#601D61"/*tmp*/, true);
            });
          }
        } else {
          hintText += 'empty';
        }
        hint(hintText);
      }
    }
    var hintItem = document.getElementById('hint').firstChild;
    function hint(text) {
      hintItem.nodeValue = text;
    }
    function clear() {
      for (var i = highlighted.length - 1; i >= 0; i--) {
        highlighted[i]();
      }
      highlighted = [];
    }
  ]]>
</script>
<rect x="8" y="32" rx="3" ry="3" width="94" height="171" fill="#4CBFCB">
</rect>
<text dominant-baseline="middle" font-family="Raleway" x="11" y="44">
0
</text>
<rect x="104" y="32" rx="3" ry="3" width="62" height="171" fill="#4CBFCB">
</rect>
<text dominant-baseline="middle" font-family="Raleway" x="107" y="44">
1
</text>
<rect x="168" y="32" rx="3" ry="3" width="94" height="171" fill="#4CBFCB">
</rect>
<text dominant-baseline="middle" font-family="Raleway" x="171" y="44">
2
</text>
<rect x="264" y="32" rx="3" ry="3" width="62" height="171" fill="#4CBFCB">
</rect>
<text dominant-baseline="middle" font-family="Raleway" x="267" y="44">
3
</text>
<rect class="r-0 c-0" onmouseover="h({r:0,c:0})" x="8" y="56" width="16" height="14" fill="#A4EEE8">
</rect>
<rect class="r-0 c-1" onmouseover="h({r:0,c:1})" x="24" y="56" width="16" height="14" fill="#A4EEE8">
</rect>
<rect class="r-0 c-2" onmouseover="h({r:0,c:2})" x="40" y="56" width="16" height="14" fill="#A4EEE8">
</rect>
<rect class="r-0 c-3" onmouseover="h({r:0,c:3})" x="56" y="56" width="16" height="14" fill="#A4EEE8">
</rect>
<rect class="r-0 c-4" onmouseover="h({r:0,c:4})" x="72" y="56" width="16" height="14" fill="#A4EEE8">
</rect>
<rect class="r-0 c-5" onmouseover="h({r:0,c:5})" x="88" y="56" width="14" height="14" fill="#A4EEE8">
</rect>
<rect class="r-0 c-6" onmouseover="h({r:0,c:6})" x="104" y="56" width="16" height="14" fill="#A4EEE8">
</rect>
<rect class="r-0 c-7" onmouseover="h({r:0,c:7})" x="120" y="56" width="16" height="14" fill="#A4EEE8">
</rect>
<rect class="r-0 c-8" onmouseover="h({r:0,c:8})" x="136" y="56" width="16" height="14" fill="#A4EEE8">
</rect>
<rect class="r-0 c-9" onmouseover="h({r:0,c:9})" x="152" y="56" width="14" height="14" fill="#A4EEE8">
</rect>
<rect class="r-0 c-10" onmouseover="h({r:0,c:10})" x="168" y="56" width="16" height="14" fill="#A4EEE8">
</rect>
<rect class="r-0 c-11" onmouseover="h({r:0,c:11})" x="184" y="56" width="16" height="14" fill="#A4EEE8">
</rect>
<rect class="r-0 c-12" onmouseover="h({r:0,c:12})" x="200" y="56" width="16" height="14" fill="#A4EEE8">
</rect>
<rect class="r-0 c-13" onmouseover="h({r:0,c:13})" x="216" y="56" width="16" height="14" fill="#A4EEE8">
</rect>
<rect class="r-0 c-14" onmouseover="h({r:0,c:14})" x="232" y="56" width="16" height="14" fill="#A4EEE8">
</rect>
<rect class="r-0 c-15" onmouseover="h({r:0,c:15})" x="248" y="56" width="14" height="14" fill="#A4EEE8">
</rect>
<rect class="r-0 c-16" onmouseover="h({r:0,c:16})" x="264" y="56" width="16" height="14" fill="#A4EEE8">
</rect>
<rect class="r-0 c-17" onmouseover="h({r:0,c:17})" x="280" y="56" width="16" height="14" fill="#A4EEE8">
</rect>
<rect class="r-0 c-18" onmouseover="h({r:0,c:18})" x="296" y="56" width="16" height="14" fill="#A4EEE8">
</rect>
<rect class="r-0 c-19" onmouseover="h({r:0,c:19})" x="312" y="56" width="14" height="14" fill="#A4EEE8">
</rect>
<rect onmouseover="h({r:0,c:2})" x="40" y="56" width="16" height="14" fill="#FBA42B">
</rect>
<rect onmouseover="h({r:0,c:3})" x="56" y="56" width="16" height="14" fill="#FBA42B">
</rect>
<rect onmouseover="h({r:0,c:4})" x="72" y="56" width="16" height="14" fill="#FBA42B">
</rect>
<rect onmouseover="h({r:0,c:5})" x="88" y="56" width="16" height="14" fill="#FBA42B">
</rect>
<rect onmouseover="h({r:0,c:6})" x="104" y="56" width="16" height="14" fill="#FBA42B">
</rect>
<rect onmouseover="h({r:0,c:7})" x="120" y="56" width="16" height="14" fill="#FBA42B">
</rect>
<rect onmouseover="h({r:0,c:8})" x="136" y="56" width="16" height="14" fill="#FBA42B">
</rect>
<rect onmouseover="h({r:0,c:9})" x="152" y="56" width="14" height="14" fill="#FBA42B">
</rect>
<rect onmouseover="h({r:0,c:12})" x="200" y="56" width="16" height="14" fill="#FBA42B">
</rect>
<rect onmouseover="h({r:0,c:13})" x="216" y="56" width="16" height="14" fill="#FBA42B">
</rect>
<rect onmouseover="h({r:0,c:14})" x="232" y="56" width="16" height="14" fill="#FBA42B">
</rect>
<rect onmouseover="h({r:0,c:15})" x="248" y="56" width="14" height="14" fill="#FBA42B">
</rect>
<rect onmouseover="h({r:0,c: 12})" x="200" y="56" width="5" height="14" fill="#F6E575">
</rect>
<rect onmouseover="h({r:0,c: 10})" x="168" y="56" width="5" height="14" fill="#F6E575">
</rect>
<rect onmouseover="h({r:0,c: 8})" x="136" y="56" width="5" height="14" fill="#F6E575">
</rect>
<rect onmouseover="h({r:0,c: 2})" x="40" y="56" width="5" height="14" fill="#F6E575">
</rect>
<rect class="r-1 c-0" onmouseover="h({r:1,c:0})" x="8" y="72" width="16" height="14" fill="#A4EEE8">
</rect>
<rect class="r-1 c-1" onmouseover="h({r:1,c:1})" x="24" y="72" width="16" height="14" fill="#A4EEE8">
</rect>
<rect class="r-1 c-2" onmouseover="h({r:1,c:2})" x="40" y="72" width="16" height="14" fill="#A4EEE8">
</rect>
<rect class="r-1 c-3" onmouseover="h({r:1,c:3})" x="56" y="72" width="16" height="14" fill="#A4EEE8">
</rect>
<rect class="r-1 c-4" onmouseover="h({r:1,c:4})" x="72" y="72" width="16" height="14" fill="#A4EEE8">
</rect>
<rect class="r-1 c-5" onmouseover="h({r:1,c:5})" x="88" y="72" width="14" height="14" fill="#A4EEE8">
</rect>
<rect class="r-1 c-6" onmouseover="h({r:1,c:6})" x="104" y="72" width="16" height="14" fill="#A4EEE8">
</rect>
<rect class="r-1 c-7" onmouseover="h({r:1,c:7})" x="120" y="72" width="16" height="14" fill="#A4EEE8">
</rect>
<rect class="r-1 c-8" onmouseover="h({r:1,c:8})" x="136" y="72" width="16" height="14" fill="#A4EEE8">
</rect>
<rect class="r-1 c-9" onmouseover="h({r:1,c:9})" x="152" y="72" width="14" height="14" fill="#A4EEE8">
</rect>
<rect class="r-1 c-10" onmouseover="h({r:1,c:10})" x="168" y="72" width="16" height="14" fill="#A4EEE8">
</rect>
<rect class="r-1 c-11" onmouseover="h({r:1,c:11})" x="184" y="72" width="16" height="14" fill="#A4EEE8">
</rect>
<rect class="r-1 c-12" onmouseover="h({r:1,c:12})" x="200" y="72" width="16" height="14" fill="#A4EEE8">
</rect>
<rect class="r-1 c-13" onmouseover="h({r:1,c:13})" x="216" y="72" width="16" height="14" fill="#A4EEE8">
</rect>
<rect class="r-1 c-14" onmouseover="h({r:1,c:14})" x="232" y="72" width="16" height="14" fill="#A4EEE8">
</rect>
<rect class="r-1 c-15" onmouseover="h({r:1,c:15})" x="248" y="72" width="14" height="14" fill="#A4EEE8">
</rect>
<rect class="r-1 c-16" onmouseover="h({r:1,c:16})" x="264" y="72" width="16" height="14" fill="#A4EEE8">
</rect>
<rect class="r-1 c-17" onmouseover="h({r:1,c:17})" x="280" y="72" width="16" height="14" fill="#A4EEE8">
</rect>
<rect class="r-1 c-18" onmouseover="h({r:1,c:18})" x="296" y="72" width="16" height="14" fill="#A4EEE8">
</rect>
<rect class="r-1 c-19" onmouseover="h({r:1,c:19})" x="312" y="72" width="14" height="14" fill="#A4EEE8">
</rect>
<rect onmouseover="h({r:1,c:0})" x="8" y="72" width="16" height="14" fill="#FBA42B">
</rect>
<rect onmouseover="h({r:1,c:1})" x="24" y="72" width="14" height="14" fill="#FBA42B">
</rect>
<rect onmouseover="h({r:1,c: 2})" x="40" y="72" width="5" height="14" fill="#F6E575">
</rect>
<rect onmouseover="h({r:1,c: 0})" x="8" y="72" width="5" height="14" fill="#F6E575">
</rect>
<rect class="r-2 c-0" onmouseover="h({r:2,c:0})" x="8" y="88" width="16" height="14" fill="#A4EEE8">
</rect>
<rect class="r-2 c-1" onmouseover="h({r:2,c:1})" x="24" y="88" width="16" height="14" fill="#A4EEE8">
</rect>
<rect class="r-2 c-2" onmouseover="h({r:2,c:2})" x="40" y="88" width="16" height="14" fill="#A4EEE8">
</rect>
<rect class="r-2 c-3" onmouseover="h({r:2,c:3})" x="56" y="88" width="16" height="14" fill="#A4EEE8">
</rect>
<rect class="r-2 c-4" onmouseover="h({r:2,c:4})" x="72" y="88" width="16" height="14" fill="#A4EEE8">
</rect>
<rect class="r-2 c-5" onmouseover="h({r:2,c:5})" x="88" y="88" width="14" height="14" fill="#A4EEE8">
</rect>
<rect class="r-2 c-6" onmouseover="h({r:2,c:6})" x="104" y="88" width="16" height="14" fill="#A4EEE8">
</rect>
<rect class="r-2 c-7" onmouseover="h({r:2,c:7})" x="120" y="88" width="16" height="14" fill="#A4EEE8">
</rect>
<rect class="r-2 c-8" onmouseover="h({r:2,c:8})" x="136" y="88" width="16" height="14" fill="#A4EEE8">
</rect>
<rect class="r-2 c-9" onmouseover="h({r:2,c:9})" x="152" y="88" width="14" height="14" fill="#A4EEE8">
</rect>
<rect class="r-2 c-10" onmouseover="h({r:2,c:10})" x="168" y="88" width="16" height="14" fill="#A4EEE8">
</rect>
<rect class="r-2 c-11" onmouseover="h({r:2,c:11})" x="184" y="88" width="16" height="14" fill="#A4EEE8">
</rect>
<rect class="r-2 c-12" onmouseover="h({r:2,c:12})" x="200" y="88" width="16" height="14" fill="#A4EEE8">
</rect>
<rect class="r-2 c-13" onmouseover="h({r:2,c:13})" x="216" y="88" width="16" height="14" fill="#A4EEE8">
</rect>
<rect class="r-2 c-14" onmouseover="h({r:2,c:14})" x="232" y="88" width="16" height="14" fill="#A4EEE8">
</rect>
<rect class="r-2 c-15" onmouseover="h({r:2,c:15})" x="248" y="88" width="14" height="14" fill="#A4EEE8">
</rect>
<rect class="r-2 c-16" onmouseover="h({r:2,c:16})" x="264" y="88" width="16" height="14" fill="#A4EEE8">
</rect>
<rect class="r-2 c-17" onmouseover="h({r:2,c:17})" x="280" y="88" width="16" height="14" fill="#A4EEE8">
</rect>
<rect class="r-2 c-18" onmouseover="h({r:2,c:18})" x="296" y="88" width="16" height="14" fill="#A4EEE8">
</rect>
<rect class="r-2 c-19" onmouseover="h({r:2,c:19})" x="312" y="88" width="14" height="14" fill="#A4EEE8">
</rect>
<rect onmouseover="h({r:2,c:6})" x="104" y="88" width="16" height="14" fill="#FBA42B">
</rect>
<rect onmouseover="h({r:2,c:7})" x="120" y="88" width="14" height="14" fill="#FBA42B">
</rect>
<rect onmouseover="h({r:2,c: 8})" x="136" y="88" width="5" height="14" fill="#F6E575">
</rect>
<rect onmouseover="h({r:2,c: 6})" x="104" y="88" width="5" height="14" fill="#F6E575">
</rect>
<rect class="r-3 c-0" onmouseover="h({r:3,c:0})" x="8" y="104" width="16" height="14" fill="#A4EEE8">
</rect>
<rect class="r-3 c-1" onmouseover="h({r:3,c:1})" x="24" y="104" width="16" height="14" fill="#A4EEE8">
</rect>
<rect class="r-3 c-2" onmouseover="h({r:3,c:2})" x="40" y="104" width="16" height="14" fill="#A4EEE8">
</rect>
<rect class="r-3 c-3" onmouseover="h({r:3,c:3})" x="56" y="104" width="16" height="14" fill="#A4EEE8">
</rect>
<rect class="r-3 c-4" onmouseover="h({r:3,c:4})" x="72" y="104" width="16" height="14" fill="#A4EEE8">
</rect>
<rect class="r-3 c-5" onmouseover="h({r:3,c:5})" x="88" y="104" width="14" height="14" fill="#A4EEE8">
</rect>
<rect class="r-3 c-6" onmouseover="h({r:3,c:6})" x="104" y="104" width="16" height="14" fill="#A4EEE8">
</rect>
<rect class="r-3 c-7" onmouseover="h({r:3,c:7})" x="120" y="104" width="16" height="14" fill="#A4EEE8">
</rect>
<rect class="r-3 c-8" onmouseover="h({r:3,c:8})" x="136" y="104" width="16" height="14" fill="#A4EEE8">
</rect>
<rect class="r-3 c-9" onmouseover="h({r:3,c:9})" x="152" y="104" width="14" height="14" fill="#A4EEE8">
</rect>
<rect class="r-3 c-10" onmouseover="h({r:3,c:10})" x="168" y="104" width="16" height="14" fill="#A4EEE8">
</rect>
<rect class="r-3 c-11" onmouseover="h({r:3,c:11})" x="184" y="104" width="16" height="14" fill="#A4EEE8">
</rect>
<rect class="r-3 c-12" onmouseover="h({r:3,c:12})" x="200" y="104" width="16" height="14" fill="#A4EEE8">
</rect>
<rect class="r-3 c-13" onmouseover="h({r:3,c:13})" x="216" y="104" width="16" height="14" fill="#A4EEE8">
</rect>
<rect class="r-3 c-14" onmouseover="h({r:3,c:14})" x="232" y="104" width="16" height="14" fill="#A4EEE8">
</rect>
<rect class="r-3 c-15" onmouseover="h({r:3,c:15})" x="248" y="104" width="14" height="14" fill="#A4EEE8">
</rect>
<rect class="r-3 c-16" onmouseover="h({r:3,c:16})" x="264" y="104" width="16" height="14" fill="#A4EEE8">
</rect>
<rect class="r-3 c-17" onmouseover="h({r:3,c:17})" x="280" y="104" width="16" height="14" fill="#A4EEE8">
</rect>
<rect class="r-3 c-18" onmouseover="h({r:3,c:18})" x="296" y="104" width="16" height="14" fill="#A4EEE8">
</rect>
<rect class="r-3 c-19" onmouseover="h({r:3,c:19})" x="312" y="104" width="14" height="14" fill="#A4EEE8">
</rect>
<rect onmouseover="h({r:3,c:8})" x="136" y="104" width="14" height="14" fill="#FBA42B">
</rect>
<rect onmouseover="h({r:3,c: 8})" x="136" y="104" width="5" height="14" fill="#F6E575">
</rect>
<rect class="r-4 c-0" onmouseover="h({r:4,c:0})" x="8" y="120" width="16" height="14" fill="#A4EEE8">
</rect>
<rect class="r-4 c-1" onmouseover="h({r:4,c:1})" x="24" y="120" width="16" height="14" fill="#A4EEE8">
</rect>
<rect class="r-4 c-2" onmouseover="h({r:4,c:2})" x="40" y="120" width="16" height="14" fill="#A4EEE8">
</rect>
<rect class="r-4 c-3" onmouseover="h({r:4,c:3})" x="56" y="120" width="16" height="14" fill="#A4EEE8">
</rect>
<rect class="r-4 c-4" onmouseover="h({r:4,c:4})" x="72" y="120" width="16" height="14" fill="#A4EEE8">
</rect>
<rect class="r-4 c-5" onmouseover="h({r:4,c:5})" x="88" y="120" width="14" height="14" fill="#A4EEE8">
</rect>
<rect class="r-4 c-6" onmouseover="h({r:4,c:6})" x="104" y="120" width="16" height="14" fill="#A4EEE8">
</rect>
<rect class="r-4 c-7" onmouseover="h({r:4,c:7})" x="120" y="120" width="16" height="14" fill="#A4EEE8">
</rect>
<rect class="r-4 c-8" onmouseover="h({r:4,c:8})" x="136" y="120" width="16" height="14" fill="#A4EEE8">
</rect>
<rect class="r-4 c-9" onmouseover="h({r:4,c:9})" x="152" y="120" width="14" height="14" fill="#A4EEE8">
</rect>
<rect class="r-4 c-10" onmouseover="h({r:4,c:10})" x="168" y="120" width="16" height="14" fill="#A4EEE8">
</rect>
<rect class="r-4 c-11" onmouseover="h({r:4,c:11})" x="184" y="120" width="16" height="14" fill="#A4EEE8">
</rect>
<rect class="r-4 c-12" onmouseover="h({r:4,c:12})" x="200" y="120" width="16" height="14" fill="#A4EEE8">
</rect>
<rect class="r-4 c-13" onmouseover="h({r:4,c:13})" x="216" y="120" width="16" height="14" fill="#A4EEE8">
</rect>
<rect class="r-4 c-14" onmouseover="h({r:4,c:14})" x="232" y="120" width="16" height="14" fill="#A4EEE8">
</rect>
<rect class="r-4 c-15" onmouseover="h({r:4,c:15})" x="248" y="120" width="14" height="14" fill="#A4EEE8">
</rect>
<rect class="r-4 c-16" onmouseover="h({r:4,c:16})" x="264" y="120" width="16" height="14" fill="#A4EEE8">
</rect>
<rect class="r-4 c-17" onmouseover="h({r:4,c:17})" x="280" y="120" width="16" height="14" fill="#A4EEE8">
</rect>
<rect class="r-4 c-18" onmouseover="h({r:4,c:18})" x="296" y="120" width="16" height="14" fill="#A4EEE8">
</rect>
<rect class="r-4 c-19" onmouseover="h({r:4,c:19})" x="312" y="120" width="14" height="14" fill="#A4EEE8">
</rect>
<rect onmouseover="h({r:4,c:10})" x="168" y="120" width="16" height="14" fill="#FBA42B">
</rect>
<rect onmouseover="h({r:4,c:11})" x="184" y="120" width="14" height="14" fill="#FBA42B">
</rect>
<rect onmouseover="h({r:4,c: 12})" x="200" y="120" width="5" height="14" fill="#F6E575">
</rect>
<rect onmouseover="h({r:4,c: 10})" x="168" y="120" width="5" height="14" fill="#F6E575">
</rect>
<rect class="r-5 c-0" onmouseover="h({r:5,c:0})" x="8" y="136" width="16" height="14" fill="#A4EEE8">
</rect>
<rect class="r-5 c-1" onmouseover="h({r:5,c:1})" x="24" y="136" width="16" height="14" fill="#A4EEE8">
</rect>
<rect class="r-5 c-2" onmouseover="h({r:5,c:2})" x="40" y="136" width="16" height="14" fill="#A4EEE8">
</rect>
<rect class="r-5 c-3" onmouseover="h({r:5,c:3})" x="56" y="136" width="16" height="14" fill="#A4EEE8">
</rect>
<rect class="r-5 c-4" onmouseover="h({r:5,c:4})" x="72" y="136" width="16" height="14" fill="#A4EEE8">
</rect>
<rect class="r-5 c-5" onmouseover="h({r:5,c:5})" x="88" y="136" width="14" height="14" fill="#A4EEE8">
</rect>
<rect class="r-5 c-6" onmouseover="h({r:5,c:6})" x="104" y="136" width="16" height="14" fill="#A4EEE8">
</rect>
<rect class="r-5 c-7" onmouseover="h({r:5,c:7})" x="120" y="136" width="16" height="14" fill="#A4EEE8">
</rect>
<rect class="r-5 c-8" onmouseover="h({r:5,c:8})" x="136" y="136" width="16" height="14" fill="#A4EEE8">
</rect>
<rect class="r-5 c-9" onmouseover="h({r:5,c:9})" x="152" y="136" width="14" height="14" fill="#A4EEE8">
</rect>
<rect class="r-5 c-10" onmouseover="h({r:5,c:10})" x="168" y="136" width="16" height="14" fill="#A4EEE8">
</rect>
<rect class="r-5 c-11" onmouseover="h({r:5,c:11})" x="184" y="136" width="16" height="14" fill="#A4EEE8">
</rect>
<rect class="r-5 c-12" onmouseover="h({r:5,c:12})" x="200" y="136" width="16" height="14" fill="#A4EEE8">
</rect>
<rect class="r-5 c-13" onmouseover="h({r:5,c:13})" x="216" y="136" width="16" height="14" fill="#A4EEE8">
</rect>
<rect class="r-5 c-14" onmouseover="h({r:5,c:14})" x="232" y="136" width="16" height="14" fill="#A4EEE8">
</rect>
<rect class="r-5 c-15" onmouseover="h({r:5,c:15})" x="248" y="136" width="14" height="14" fill="#A4EEE8">
</rect>
<rect class="r-5 c-16" onmouseover="h({r:5,c:16})" x="264" y="136" width="16" height="14" fill="#A4EEE8">
</rect>
<rect class="r-5 c-17" onmouseover="h({r:5,c:17})" x="280" y="136" width="16" height="14" fill="#A4EEE8">
</rect>
<rect class="r-5 c-18" onmouseover="h({r:5,c:18})" x="296" y="136" width="16" height="14" fill="#A4EEE8">
</rect>
<rect class="r-5 c-19" onmouseover="h({r:5,c:19})" x="312" y="136" width="14" height="14" fill="#A4EEE8">
</rect>
<rect onmouseover="h({r:5,c:16})" x="264" y="136" width="14" height="14" fill="#FD6218">
</rect>
<rect class="r-6 c-0" onmouseover="h({r:6,c:0})" x="8" y="152" width="16" height="14" fill="#A4EEE8">
</rect>
<rect class="r-6 c-1" onmouseover="h({r:6,c:1})" x="24" y="152" width="16" height="14" fill="#A4EEE8">
</rect>
<rect class="r-6 c-2" onmouseover="h({r:6,c:2})" x="40" y="152" width="16" height="14" fill="#A4EEE8">
</rect>
<rect class="r-6 c-3" onmouseover="h({r:6,c:3})" x="56" y="152" width="16" height="14" fill="#A4EEE8">
</rect>
<rect class="r-6 c-4" onmouseover="h({r:6,c:4})" x="72" y="152" width="16" height="14" fill="#A4EEE8">
</rect>
<rect class="r-6 c-5" onmouseover="h({r:6,c:5})" x="88" y="152" width="14" height="14" fill="#A4EEE8">
</rect>
<rect class="r-6 c-6" onmouseover="h({r:6,c:6})" x="104" y="152" width="16" height="14" fill="#A4EEE8">
</rect>
<rect class="r-6 c-7" onmouseover="h({r:6,c:7})" x="120" y="152" width="16" height="14" fill="#A4EEE8">
</rect>
<rect class="r-6 c-8" onmouseover="h({r:6,c:8})" x="136" y="152" width="16" height="14" fill="#A4EEE8">
</rect>
<rect class="r-6 c-9" onmouseover="h({r:6,c:9})" x="152" y="152" width="14" height="14" fill="#A4EEE8">
</rect>
<rect class="r-6 c-10" onmouseover="h({r:6,c:10})" x="168" y="152" width="16" height="14" fill="#A4EEE8">
</rect>
<rect class="r-6 c-11" onmouseover="h({r:6,c:11})" x="184" y="152" width="16" height="14" fill="#A4EEE8">
</rect>
<rect class="r-6 c-12" onmouseover="h({r:6,c:12})" x="200" y="152" width="16" height="14" fill="#A4EEE8">
</rect>
<rect class="r-6 c-13" onmouseover="h({r:6,c:13})" x="216" y="152" width="16" height="14" fill="#A4EEE8">
</rect>
<rect class="r-6 c-14" onmouseover="h({r:6,c:14})" x="232" y="152" width="16" height="14" fill="#A4EEE8">
</rect>
<rect class="r-6 c-15" onmouseover="h({r:6,c:15})" x="248" y="152" width="14" height="14" fill="#A4EEE8">
</rect>
<rect class="r-6 c-16" onmouseover="h({r:6,c:16})" x="264" y="152" width="16" height="14" fill="#A4EEE8">
</rect>
<rect class="r-6 c-17" onmouseover="h({r:6,c:17})" x="280" y="152" width="16" height="14" fill="#A4EEE8">
</rect>
<rect class="r-6 c-18" onmouseover="h({r:6,c:18})" x="296" y="152" width="16" height="14" fill="#A4EEE8">
</rect>
<rect class="r-6 c-19" onmouseover="h({r:6,c:19})" x="312" y="152" width="14" height="14" fill="#A4EEE8">
</rect>
<rect onmouseover="h({r:6,c:16})" x="264" y="152" width="14" height="14" fill="#FD6218">
</rect>
<rect class="r-7 c-0" onmouseover="h({r:7,c:0})" x="8" y="168" width="16" height="14" fill="#A4EEE8">
</rect>
<rect class="r-7 c-1" onmouseover="h({r:7,c:1})" x="24" y="168" width="16" height="14" fill="#A4EEE8">
</rect>
<rect class="r-7 c-2" onmouseover="h({r:7,c:2})" x="40" y="168" width="16" height="14" fill="#A4EEE8">
</rect>
<rect class="r-7 c-3" onmouseover="h({r:7,c:3})" x="56" y="168" width="16" height="14" fill="#A4EEE8">
</rect>
<rect class="r-7 c-4" onmouseover="h({r:7,c:4})" x="72" y="168" width="16" height="14" fill="#A4EEE8">
</rect>
<rect class="r-7 c-5" onmouseover="h({r:7,c:5})" x="88" y="168" width="14" height="14" fill="#A4EEE8">
</rect>
<rect class="r-7 c-6" onmouseover="h({r:7,c:6})" x="104" y="168" width="16" height="14" fill="#A4EEE8">
</rect>
<rect class="r-7 c-7" onmouseover="h({r:7,c:7})" x="120" y="168" width="16" height="14" fill="#A4EEE8">
</rect>
<rect class="r-7 c-8" onmouseover="h({r:7,c:8})" x="136" y="168" width="16" height="14" fill="#A4EEE8">
</rect>
<rect class="r-7 c-9" onmouseover="h({r:7,c:9})" x="152" y="168" width="14" height="14" fill="#A4EEE8">
</rect>
<rect class="r-7 c-10" onmouseover="h({r:7,c:10})" x="168" y="168" width="16" height="14" fill="#A4EEE8">
</rect>
<rect class="r-7 c-11" onmouseover="h({r:7,c:11})" x="184" y="168" width="16" height="14" fill="#A4EEE8">
</rect>
<rect class="r-7 c-12" onmouseover="h({r:7,c:12})" x="200" y="168" width="16" height="14" fill="#A4EEE8">
</rect>
<rect class="r-7 c-13" onmouseover="h({r:7,c:13})" x="216" y="168" width="16" height="14" fill="#A4EEE8">
</rect>
<rect class="r-7 c-14" onmouseover="h({r:7,c:14})" x="232" y="168" width="16" height="14" fill="#A4EEE8">
</rect>
<rect class="r-7 c-15" onmouseover="h({r:7,c:15})" x="248" y="168" width="14" height="14" fill="#A4EEE8">
</rect>
<rect class="r-7 c-16" onmouseover="h({r:7,c:16})" x="264" y="168" width="16" height="14" fill="#A4EEE8">
</rect>
<rect class="r-7 c-17" onmouseover="h({r:7,c:17})" x="280" y="168" width="16" height="14" fill="#A4EEE8">
</rect>
<rect class="r-7 c-18" onmouseover="h({r:7,c:18})" x="296" y="168" width="16" height="14" fill="#A4EEE8">
</rect>
<rect class="r-7 c-19" onmouseover="h({r:7,c:19})" x="312" y="168" width="14" height="14" fill="#A4EEE8">
</rect>
<rect onmouseover="h({r:7,c:16})" x="264" y="168" width="14" height="14" fill="#FD6218">
</rect>
<rect class="r-8 c-0" onmouseover="h({r:8,c:0})" x="8" y="184" width="16" height="14" fill="#A4EEE8">
</rect>
<rect class="r-8 c-1" onmouseover="h({r:8,c:1})" x="24" y="184" width="16" height="14" fill="#A4EEE8">
</rect>
<rect class="r-8 c-2" onmouseover="h({r:8,c:2})" x="40" y="184" width="16" height="14" fill="#A4EEE8">
</rect>
<rect class="r-8 c-3" onmouseover="h({r:8,c:3})" x="56" y="184" width="16" height="14" fill="#A4EEE8">
</rect>
<rect class="r-8 c-4" onmouseover="h({r:8,c:4})" x="72" y="184" width="16" height="14" fill="#A4EEE8">
</rect>
<rect class="r-8 c-5" onmouseover="h({r:8,c:5})" x="88" y="184" width="14" height="14" fill="#A4EEE8">
</rect>
<rect class="r-8 c-6" onmouseover="h({r:8,c:6})" x="104" y="184" width="16" height="14" fill="#A4EEE8">
</rect>
<rect class="r-8 c-7" onmouseover="h({r:8,c:7})" x="120" y="184" width="16" height="14" fill="#A4EEE8">
</rect>
<rect class="r-8 c-8" onmouseover="h({r:8,c:8})" x="136" y="184" width="16" height="14" fill="#A4EEE8">
</rect>
<rect class="r-8 c-9" onmouseover="h({r:8,c:9})" x="152" y="184" width="14" height="14" fill="#A4EEE8">
</rect>
<rect class="r-8 c-10" onmouseover="h({r:8,c:10})" x="168" y="184" width="16" height="14" fill="#A4EEE8">
</rect>
<rect class="r-8 c-11" onmouseover="h({r:8,c:11})" x="184" y="184" width="16" height="14" fill="#A4EEE8">
</rect>
<rect class="r-8 c-12" onmouseover="h({r:8,c:12})" x="200" y="184" width="16" height="14" fill="#A4EEE8">
</rect>
<rect class="r-8 c-13" onmouseover="h({r:8,c:13})" x="216" y="184" width="16" height="14" fill="#A4EEE8">
</rect>
<rect class="r-8 c-14" onmouseover="h({r:8,c:14})" x="232" y="184" width="16" height="14" fill="#A4EEE8">
</rect>
<rect class="r-8 c-15" onmouseover="h({r:8,c:15})" x="248" y="184" width="14" height="14" fill="#A4EEE8">
</rect>
<rect class="r-8 c-16" onmouseover="h({r:8,c:16})" x="264" y="184" width="16" height="14" fill="#A4EEE8">
</rect>
<rect class="r-8 c-17" onmouseover="h({r:8,c:17})" x="280" y="184" width="16" height="14" fill="#A4EEE8">
</rect>
<rect class="r-8 c-18" onmouseover="h({r:8,c:18})" x="296" y="184" width="16" height="14" fill="#A4EEE8">
</rect>
<rect class="r-8 c-19" onmouseover="h({r:8,c:19})" x="312" y="184" width="14" height="14" fill="#A4EEE8">
</rect>
<rect onmouseover="h({r:8,c:16})" x="264" y="184" width="14" height="14" fill="#FD6218">
</rect>
<path d="M 102 120.5 C 98 120.5 98 120.5 99 120.5" fill="transparent" stroke="rgba(0,0,0,0.6)" stroke-width="2" marker-end="url(#arrow)">
</path>
<path d="M 166 120.5 C 162 120.5 162 120.5 163 120.5" fill="transparent" stroke="rgba(0,0,0,0.6)" stroke-width="2" marker-end="url(#arrow)">
</path>
<path d="M 166 206 C 212.5 224.29884391401353 212.5 224.29884391401353 259 206" fill="transparent" stroke="rgba(0,0,0,0.6)" stroke-width="2" marker-end="url(#arrow)">
</path>
<path d="M 262 206 C 185.5 240.41426189543375 185.5 240.41426189543375 109 206" fill="transparent" stroke="rgba(0,0,0,0.6)" stroke-width="2" marker-end="url(#arrow)">
</path>
</svg>
