<?xml version="1.0" encoding="UTF-8" standalone="no"?>
<!DOCTYPE svg PUBLIC "-//W3C//DTD SVG 1.1//EN"
 "http://www.w3.org/Graphics/SVG/1.1/DTD/svg11.dtd">
<!-- Generated by graphviz version 2.38.0 (20140413.2041)
 -->
<!-- Title: %3 Pages: 1 -->
<svg width="134pt" height="260pt"
 viewBox="0.00 0.00 134.00 260.00" xmlns="http://www.w3.org/2000/svg" xmlns:xlink="http://www.w3.org/1999/xlink">
<g id="graph0" class="graph" transform="scale(1 1) rotate(0) translate(4 256)">
<title>%3</title>
<polygon fill="white" stroke="none" points="-4,4 -4,-256 130,-256 130,4 -4,4"/>
<!-- b0 -->
<g id="node1" class="node"><title>b0</title>
<ellipse fill="none" stroke="black" cx="54" cy="-234" rx="27" ry="18"/>
<text text-anchor="middle" x="54" y="-229.8" font-family="Times,serif" font-size="14.00">b0</text>
</g>
<!-- b1 -->
<g id="node2" class="node"><title>b1</title>
<ellipse fill="none" stroke="black" cx="54" cy="-162" rx="27" ry="18"/>
<text text-anchor="middle" x="54" y="-157.8" font-family="Times,serif" font-size="14.00">b1</text>
</g>
<!-- b0&#45;&gt;b1 -->
<g id="edge1" class="edge"><title>b0&#45;&gt;b1</title>
<path fill="none" stroke="black" d="M54,-215.697C54,-207.983 54,-198.712 54,-190.112"/>
<polygon fill="black" stroke="black" points="57.5001,-190.104 54,-180.104 50.5001,-190.104 57.5001,-190.104"/>
</g>
<!-- b2 -->
<g id="node3" class="node"><title>b2</title>
<ellipse fill="none" stroke="black" cx="82" cy="-90" rx="27" ry="18"/>
<text text-anchor="middle" x="82" y="-85.8" font-family="Times,serif" font-size="14.00">b2</text>
</g>
<!-- b1&#45;&gt;b2 -->
<g id="edge2" class="edge"><title>b1&#45;&gt;b2</title>
<path fill="none" stroke="black" d="M60.6356,-144.411C63.9134,-136.216 67.9442,-126.14 71.6181,-116.955"/>
<polygon fill="black" stroke="black" points="74.9477,-118.055 75.412,-107.47 68.4484,-115.455 74.9477,-118.055"/>
</g>
<!-- b3 -->
<g id="node4" class="node"><title>b3</title>
<ellipse fill="none" stroke="black" cx="27" cy="-18" rx="27" ry="18"/>
<text text-anchor="middle" x="27" y="-13.8" font-family="Times,serif" font-size="14.00">b3</text>
</g>
<!-- b2&#45;&gt;b3 -->
<g id="edge3" class="edge"><title>b2&#45;&gt;b3</title>
<path fill="none" stroke="black" d="M70.0658,-73.811C62.7864,-64.5464 53.3374,-52.5203 45.1456,-42.0944"/>
<polygon fill="black" stroke="black" points="47.8413,-39.8601 38.9109,-34.1593 42.337,-44.1849 47.8413,-39.8601"/>
</g>
<!-- b4 -->
<g id="node5" class="node"><title>b4</title>
<ellipse fill="none" stroke="black" cx="99" cy="-18" rx="27" ry="18"/>
<text text-anchor="middle" x="99" y="-13.8" font-family="Times,serif" font-size="14.00">b4</text>
</g>
<!-- b2&#45;&gt;b4 -->
<g id="edge4" class="edge"><title>b2&#45;&gt;b4</title>
<path fill="none" stroke="black" d="M86.1152,-72.055C88.0081,-64.2609 90.3004,-54.8219 92.4237,-46.0789"/>
<polygon fill="black" stroke="black" points="95.8457,-46.8189 94.8046,-36.2753 89.0434,-45.1668 95.8457,-46.8189"/>
</g>
<!-- b3&#45;&gt;b1 -->
<g id="edge5" class="edge"><title>b3&#45;&gt;b1</title>
<path fill="none" stroke="black" d="M30.2684,-36.1893C34.8765,-60.4244 43.3307,-104.888 48.8052,-133.679"/>
<polygon fill="black" stroke="black" points="45.4368,-134.701 50.7432,-143.871 52.3135,-133.394 45.4368,-134.701"/>
</g>
</g>
</svg>
