<?xml version="1.0" encoding="UTF-8" standalone="no"?>
<!DOCTYPE svg PUBLIC "-//W3C//DTD SVG 1.1//EN"
 "http://www.w3.org/Graphics/SVG/1.1/DTD/svg11.dtd">
<!-- Generated by graphviz version 2.38.0 (20140413.2041)
 -->
<!-- Title: %6531 Pages: 1 -->
<svg width="448pt" height="921pt"
 viewBox="0.00 0.00 448.00 921.00" xmlns="http://www.w3.org/2000/svg" xmlns:xlink="http://www.w3.org/1999/xlink">
<g id="graph0" class="graph" transform="scale(1 1) rotate(0) translate(4 917)">
<title>%6531</title>
<polygon fill="white" stroke="none" points="-4,4 -4,-917 444,-917 444,4 -4,4"/>
<g id="clust2" class="cluster"><title>cluster1</title>
<polygon fill="none" stroke="black" points="108,-323 108,-695 270,-695 270,-323 108,-323"/>
<text text-anchor="middle" x="189" y="-679.8" font-family="Times,serif" font-size="14.00">b1</text>
</g>
<g id="clust1" class="cluster"><title>cluster0</title>
<polygon fill="none" stroke="red" points="140,-743 140,-905 248,-905 248,-743 140,-743"/>
<text text-anchor="middle" x="194" y="-889.8" font-family="Times,serif" font-size="14.00">b0</text>
</g>
<g id="clust3" class="cluster"><title>cluster2</title>
<polygon fill="none" stroke="black" points="8,-8 8,-275 304,-275 304,-8 8,-8"/>
<text text-anchor="middle" x="156" y="-259.8" font-family="Times,serif" font-size="14.00">b2</text>
</g>
<g id="clust4" class="cluster"><title>cluster3</title>
<polygon fill="none" stroke="blue" points="312,-113 312,-275 432,-275 432,-113 312,-113"/>
<text text-anchor="middle" x="372" y="-259.8" font-family="Times,serif" font-size="14.00">b3</text>
</g>
<!-- N0 -->
<g id="node1" class="node"><title>N0</title>
<polygon fill="none" stroke="black" points="169.746,-856.5 169.746,-874.5 232.254,-874.5 232.254,-856.5 169.746,-856.5"/>
<text text-anchor="middle" x="178.746" y="-863.1" font-family="Times,serif" font-size="8.00"> </text>
<polyline fill="none" stroke="black" points="187.746,-856.5 187.746,-874.5 "/>
<text text-anchor="middle" x="210" y="-863.1" font-family="Times,serif" font-size="8.00">i0 = start</text>
</g>
<!-- N4 -->
<g id="node2" class="node"><title>N4</title>
<polygon fill="none" stroke="black" points="148.422,-751.5 148.422,-769.5 239.578,-769.5 239.578,-751.5 148.422,-751.5"/>
<text text-anchor="middle" x="157.422" y="-758.1" font-family="Times,serif" font-size="8.00"> </text>
<polyline fill="none" stroke="black" points="166.422,-751.5 166.422,-769.5 "/>
<text text-anchor="middle" x="179.41" y="-758.1" font-family="Times,serif" font-size="8.00">^i0</text>
<polyline fill="none" stroke="black" points="192.398,-751.5 192.398,-769.5 "/>
<text text-anchor="middle" x="215.988" y="-758.1" font-family="Times,serif" font-size="8.00">i4 = jump</text>
</g>
<!-- N0&#45;&gt;N4 -->
<g id="edge1" class="edge"><title>N0:CS&#45;&gt;N4:C0</title>
<path fill="none" stroke="black" stroke-dasharray="5,2" d="M179,-845.959C179,-815.734 179,-804.639 179,-770"/>
<polygon fill="black" stroke="black" points="175.5,-846 179,-856 182.5,-846 175.5,-846"/>
</g>
<!-- N5 -->
<g id="node3" class="node"><title>N5</title>
<polygon fill="none" stroke="black" points="126.438,-646.5 126.438,-664.5 251.562,-664.5 251.562,-646.5 126.438,-646.5"/>
<text text-anchor="middle" x="135.438" y="-653.1" font-family="Times,serif" font-size="8.00"> </text>
<polyline fill="none" stroke="black" points="144.438,-646.5 144.438,-664.5 "/>
<text text-anchor="middle" x="157.426" y="-653.1" font-family="Times,serif" font-size="8.00">^i4</text>
<polyline fill="none" stroke="black" points="170.414,-646.5 170.414,-664.5 "/>
<text text-anchor="middle" x="185.402" y="-653.1" font-family="Times,serif" font-size="8.00">^i17</text>
<polyline fill="none" stroke="black" points="200.391,-646.5 200.391,-664.5 "/>
<text text-anchor="middle" x="225.977" y="-653.1" font-family="Times,serif" font-size="8.00">i5 = region</text>
</g>
<!-- N4&#45;&gt;N5 -->
<g id="edge2" class="edge"><title>N4:CS&#45;&gt;N5:C0</title>
<path fill="none" stroke="black" stroke-dasharray="5,2" d="M157,-740.19C157,-710.607 157,-699.589 157,-665.5"/>
<polygon fill="black" stroke="black" points="153.5,-740.5 157,-750.5 160.5,-740.5 153.5,-740.5"/>
</g>
<!-- N6 -->
<g id="node4" class="node"><title>N6</title>
<polygon fill="none" stroke="black" points="116.311,-541.5 116.311,-559.5 261.689,-559.5 261.689,-541.5 116.311,-541.5"/>
<text text-anchor="middle" x="125.311" y="-548.1" font-family="Times,serif" font-size="8.00"> </text>
<polyline fill="none" stroke="black" points="134.311,-541.5 134.311,-559.5 "/>
<text text-anchor="middle" x="147.299" y="-548.1" font-family="Times,serif" font-size="8.00">^i5</text>
<polyline fill="none" stroke="black" points="160.287,-541.5 160.287,-559.5 "/>
<text text-anchor="middle" x="186.766" y="-548.1" font-family="Times,serif" font-size="8.00">i6 = ssa:phi</text>
<polyline fill="none" stroke="black" points="213.244,-541.5 213.244,-559.5 "/>
<text text-anchor="middle" x="224.355" y="-548.1" font-family="Times,serif" font-size="8.00">i1</text>
<polyline fill="none" stroke="black" points="235.467,-541.5 235.467,-559.5 "/>
<text text-anchor="middle" x="248.578" y="-548.1" font-family="Times,serif" font-size="8.00">i14</text>
</g>
<!-- N5&#45;&gt;N6 -->
<g id="edge4" class="edge"><title>N5:CS&#45;&gt;N6:C0</title>
<path fill="none" stroke="black" stroke-dasharray="5,2" d="M135.297,-635.882C137.145,-605.493 147,-594.974 147,-560"/>
<polygon fill="black" stroke="black" points="131.795,-635.902 135,-646 138.792,-636.107 131.795,-635.902"/>
</g>
<!-- N7 -->
<g id="node5" class="node"><title>N7</title>
<polygon fill="none" stroke="black" points="116.311,-436.5 116.311,-454.5 261.689,-454.5 261.689,-436.5 116.311,-436.5"/>
<text text-anchor="middle" x="125.311" y="-443.1" font-family="Times,serif" font-size="8.00"> </text>
<polyline fill="none" stroke="black" points="134.311,-436.5 134.311,-454.5 "/>
<text text-anchor="middle" x="147.299" y="-443.1" font-family="Times,serif" font-size="8.00">^i6</text>
<polyline fill="none" stroke="black" points="160.287,-436.5 160.287,-454.5 "/>
<text text-anchor="middle" x="186.766" y="-443.1" font-family="Times,serif" font-size="8.00">i7 = ssa:phi</text>
<polyline fill="none" stroke="black" points="213.244,-436.5 213.244,-454.5 "/>
<text text-anchor="middle" x="224.355" y="-443.1" font-family="Times,serif" font-size="8.00">i2</text>
<polyline fill="none" stroke="black" points="235.467,-436.5 235.467,-454.5 "/>
<text text-anchor="middle" x="248.578" y="-443.1" font-family="Times,serif" font-size="8.00">i16</text>
</g>
<!-- N6&#45;&gt;N7 -->
<g id="edge5" class="edge"><title>N6:CS&#45;&gt;N7:C0</title>
<path fill="none" stroke="black" stroke-dasharray="5,2" d="M125.544,-530.704C128.932,-499.932 147,-490.754 147,-455"/>
<polygon fill="black" stroke="black" points="122.032,-530.829 125,-541 129.023,-531.199 122.032,-530.829"/>
</g>
<!-- N10 -->
<g id="node6" class="node"><title>N10</title>
<polygon fill="none" stroke="black" points="132.09,-331.5 132.09,-349.5 237.91,-349.5 237.91,-331.5 132.09,-331.5"/>
<text text-anchor="middle" x="141.09" y="-338.1" font-family="Times,serif" font-size="8.00"> </text>
<polyline fill="none" stroke="black" points="150.09,-331.5 150.09,-349.5 "/>
<text text-anchor="middle" x="163.078" y="-338.1" font-family="Times,serif" font-size="8.00">^i7</text>
<polyline fill="none" stroke="black" points="176.066,-331.5 176.066,-349.5 "/>
<text text-anchor="middle" x="195.877" y="-338.1" font-family="Times,serif" font-size="8.00">i10 = if</text>
<polyline fill="none" stroke="black" points="215.688,-331.5 215.688,-349.5 "/>
<text text-anchor="middle" x="226.799" y="-338.1" font-family="Times,serif" font-size="8.00">i9</text>
</g>
<!-- N7&#45;&gt;N10 -->
<g id="edge6" class="edge"><title>N7:CS&#45;&gt;N10:C0</title>
<path fill="none" stroke="black" stroke-dasharray="5,2" d="M125.865,-425.633C131.521,-393.459 163,-388.033 163,-350"/>
<polygon fill="black" stroke="black" points="122.344,-425.744 125,-436 129.32,-426.326 122.344,-425.744"/>
</g>
<!-- N11 -->
<g id="node7" class="node"><title>N11</title>
<polygon fill="none" stroke="black" points="107.572,-226.5 107.572,-244.5 210.428,-244.5 210.428,-226.5 107.572,-226.5"/>
<text text-anchor="middle" x="116.572" y="-233.1" font-family="Times,serif" font-size="8.00"> </text>
<polyline fill="none" stroke="black" points="125.572,-226.5 125.572,-244.5 "/>
<text text-anchor="middle" x="140.561" y="-233.1" font-family="Times,serif" font-size="8.00">^i10</text>
<polyline fill="none" stroke="black" points="155.549,-226.5 155.549,-244.5 "/>
<text text-anchor="middle" x="182.988" y="-233.1" font-family="Times,serif" font-size="8.00">i11 = region</text>
</g>
<!-- N10&#45;&gt;N11 -->
<g id="edge7" class="edge"><title>N10:CS&#45;&gt;N11:C0</title>
<path fill="none" stroke="black" stroke-dasharray="5,2" d="M141,-320.19C141,-290.607 141,-279.589 141,-245.5"/>
<polygon fill="black" stroke="black" points="137.5,-320.5 141,-330.5 144.5,-320.5 137.5,-320.5"/>
</g>
<!-- N18 -->
<g id="node11" class="node"><title>N18</title>
<polygon fill="none" stroke="black" points="320.426,-226.5 320.426,-244.5 423.574,-244.5 423.574,-226.5 320.426,-226.5"/>
<text text-anchor="middle" x="329.426" y="-233.1" font-family="Times,serif" font-size="8.00"> </text>
<polyline fill="none" stroke="black" points="338.426,-226.5 338.426,-244.5 "/>
<text text-anchor="middle" x="353.414" y="-233.1" font-family="Times,serif" font-size="8.00">^i10</text>
<polyline fill="none" stroke="black" points="368.402,-226.5 368.402,-244.5 "/>
<text text-anchor="middle" x="395.988" y="-233.1" font-family="Times,serif" font-size="8.00">i18 = region</text>
</g>
<!-- N10&#45;&gt;N18 -->
<g id="edge11" class="edge"><title>N10:CS&#45;&gt;N18:C0</title>
<path fill="none" stroke="black" stroke-dasharray="5,2" d="M141.81,-320.335C156.044,-237.229 353,-343.346 353,-245.5"/>
<polygon fill="black" stroke="black" points="138.306,-320.253 141,-330.5 145.284,-320.81 138.306,-320.253"/>
</g>
<!-- N12 -->
<g id="node8" class="node"><title>N12</title>
<polygon fill="none" stroke="black" points="132.135,-121.5 132.135,-139.5 295.865,-139.5 295.865,-121.5 132.135,-121.5"/>
<text text-anchor="middle" x="141.135" y="-128.1" font-family="Times,serif" font-size="8.00"> </text>
<polyline fill="none" stroke="black" points="150.135,-121.5 150.135,-139.5 "/>
<text text-anchor="middle" x="164.977" y="-128.1" font-family="Times,serif" font-size="8.00">^i11</text>
<polyline fill="none" stroke="black" points="179.818,-121.5 179.818,-139.5 "/>
<text text-anchor="middle" x="215.619" y="-128.1" font-family="Times,serif" font-size="8.00">i12 = checkIndex</text>
<polyline fill="none" stroke="black" points="251.42,-121.5 251.42,-139.5 "/>
<text text-anchor="middle" x="262.531" y="-128.1" font-family="Times,serif" font-size="8.00">i3</text>
<polyline fill="none" stroke="black" points="273.643,-121.5 273.643,-139.5 "/>
<text text-anchor="middle" x="284.754" y="-128.1" font-family="Times,serif" font-size="8.00">i7</text>
</g>
<!-- N11&#45;&gt;N12 -->
<g id="edge8" class="edge"><title>N11:CS&#45;&gt;N12:C0</title>
<path fill="none" stroke="black" stroke-dasharray="5,2" d="M118.003,-215.661C124.896,-182.158 165,-180.011 165,-140"/>
<polygon fill="black" stroke="black" points="114.482,-215.709 117,-226 121.449,-216.385 114.482,-215.709"/>
</g>
<!-- N17 -->
<g id="node10" class="node"><title>N17</title>
<polygon fill="none" stroke="black" points="15.5684,-121.5 15.5684,-139.5 114.432,-139.5 114.432,-121.5 15.5684,-121.5"/>
<text text-anchor="middle" x="24.5684" y="-128.1" font-family="Times,serif" font-size="8.00"> </text>
<polyline fill="none" stroke="black" points="33.5684,-121.5 33.5684,-139.5 "/>
<text text-anchor="middle" x="48.4102" y="-128.1" font-family="Times,serif" font-size="8.00">^i11</text>
<polyline fill="none" stroke="black" points="63.252,-121.5 63.252,-139.5 "/>
<text text-anchor="middle" x="88.8418" y="-128.1" font-family="Times,serif" font-size="8.00">i17 = jump</text>
</g>
<!-- N11&#45;&gt;N17 -->
<g id="edge10" class="edge"><title>N11:CS&#45;&gt;N17:C0</title>
<path fill="none" stroke="black" stroke-dasharray="5,2" d="M115.916,-216.047C107.138,-178.442 48,-185.367 48,-140"/>
<polygon fill="black" stroke="black" points="112.438,-216.438 117,-226 119.397,-215.68 112.438,-216.438"/>
</g>
<!-- N13 -->
<g id="node9" class="node"><title>N13</title>
<polygon fill="none" stroke="black" points="107.535,-16.5 107.535,-34.5 248.465,-34.5 248.465,-16.5 107.535,-16.5"/>
<text text-anchor="middle" x="116.535" y="-23.1" font-family="Times,serif" font-size="8.00"> </text>
<polyline fill="none" stroke="black" points="125.535,-16.5 125.535,-34.5 "/>
<text text-anchor="middle" x="140.523" y="-23.1" font-family="Times,serif" font-size="8.00">^i12</text>
<polyline fill="none" stroke="black" points="155.512,-16.5 155.512,-34.5 "/>
<text text-anchor="middle" x="179.766" y="-23.1" font-family="Times,serif" font-size="8.00">i13 = load</text>
<polyline fill="none" stroke="black" points="204.02,-16.5 204.02,-34.5 "/>
<text text-anchor="middle" x="215.131" y="-23.1" font-family="Times,serif" font-size="8.00">i3</text>
<polyline fill="none" stroke="black" points="226.242,-16.5 226.242,-34.5 "/>
<text text-anchor="middle" x="237.354" y="-23.1" font-family="Times,serif" font-size="8.00">i7</text>
</g>
<!-- N12&#45;&gt;N13 -->
<g id="edge9" class="edge"><title>N12:CS&#45;&gt;N13:C0</title>
<path fill="none" stroke="black" stroke-dasharray="5,2" d="M141,-110.129C141,-80.3727 141,-69.2891 141,-35"/>
<polygon fill="black" stroke="black" points="137.5,-110.5 141,-120.5 144.5,-110.5 137.5,-110.5"/>
</g>
<!-- N17&#45;&gt;N5 -->
<g id="edge3" class="edge"><title>N17:CS&#45;&gt;N5:C1</title>
<path fill="none" stroke="black" stroke-dasharray="5,2" d="M25.1993,-150.095C28.5119,-232.52 72,-251.875 72,-339.5 72,-446.5 72,-446.5 72,-446.5 72,-499.288 80.8673,-514.134 107,-560 132.545,-604.835 185,-594.398 185,-646"/>
<polygon fill="black" stroke="black" points="28.6968,-149.929 25,-140 21.6982,-150.067 28.6968,-149.929"/>
</g>
<!-- N19 -->
<g id="node12" class="node"><title>N19</title>
<polygon fill="none" stroke="black" points="319.646,-121.5 319.646,-139.5 414.354,-139.5 414.354,-121.5 319.646,-121.5"/>
<text text-anchor="middle" x="328.646" y="-128.1" font-family="Times,serif" font-size="8.00"> </text>
<polyline fill="none" stroke="black" points="337.646,-121.5 337.646,-139.5 "/>
<text text-anchor="middle" x="352.635" y="-128.1" font-family="Times,serif" font-size="8.00">^i18</text>
<polyline fill="none" stroke="black" points="367.623,-121.5 367.623,-139.5 "/>
<text text-anchor="middle" x="390.988" y="-128.1" font-family="Times,serif" font-size="8.00">i19 = exit</text>
</g>
<!-- N18&#45;&gt;N19 -->
<g id="edge12" class="edge"><title>N18:CS&#45;&gt;N19:C0</title>
<path fill="none" stroke="black" stroke-dasharray="5,2" d="M329.593,-215.656C333.289,-184.783 353,-175.962 353,-140"/>
<polygon fill="black" stroke="black" points="326.078,-215.816 329,-226 333.067,-216.217 326.078,-215.816"/>
</g>
</g>
</svg>
