<?xml version="1.0" encoding="UTF-8" standalone="no"?>
<!DOCTYPE svg PUBLIC "-//W3C//DTD SVG 1.1//EN"
 "http://www.w3.org/Graphics/SVG/1.1/DTD/svg11.dtd">
<!-- Generated by graphviz version 2.38.0 (20140413.2041)
 -->
<!-- Title: %6029 Pages: 1 -->
<svg width="1170pt" height="556pt"
 viewBox="0.00 0.00 1170.24 556.00" xmlns="http://www.w3.org/2000/svg" xmlns:xlink="http://www.w3.org/1999/xlink">
<g id="graph0" class="graph" transform="scale(1 1) rotate(0) translate(4 552)">
<title>%6029</title>
<polygon fill="white" stroke="none" points="-4,4 -4,-552 1166.24,-552 1166.24,4 -4,4"/>
<!-- ForStatement -->
<g id="node1" class="node"><title>ForStatement</title>
<polygon fill="none" stroke="black" points="610.405,-511.5 610.405,-547.5 701.839,-547.5 701.839,-511.5 610.405,-511.5"/>
<text text-anchor="middle" x="656.122" y="-525.3" font-family="Times,serif" font-size="14.00">ForStatement</text>
</g>
<!-- init -->
<g id="node2" class="node"><title>init</title>
<polygon fill="none" stroke="black" points="400.122,-438.5 400.122,-474.5 454.122,-474.5 454.122,-438.5 400.122,-438.5"/>
<text text-anchor="middle" x="426.957" y="-452.3" font-family="Times,serif" font-size="14.00">init</text>
</g>
<!-- ForStatement&#45;&gt;init -->
<g id="edge1" class="edge"><title>ForStatement&#45;&gt;init</title>
<path fill="none" stroke="black" d="M610.331,-514.303C567.254,-500.947 503.588,-481.208 463.775,-468.864"/>
<polygon fill="black" stroke="black" points="464.781,-465.512 454.193,-465.893 462.708,-472.198 464.781,-465.512"/>
</g>
<!-- test -->
<g id="node3" class="node"><title>test</title>
<polygon fill="none" stroke="black" points="575.122,-438.5 575.122,-474.5 629.122,-474.5 629.122,-438.5 575.122,-438.5"/>
<text text-anchor="middle" x="601.843" y="-452.3" font-family="Times,serif" font-size="14.00">test</text>
</g>
<!-- ForStatement&#45;&gt;test -->
<g id="edge2" class="edge"><title>ForStatement&#45;&gt;test</title>
<path fill="none" stroke="black" d="M643.05,-511.313C636.484,-502.679 628.403,-492.055 621.162,-482.534"/>
<polygon fill="black" stroke="black" points="623.913,-480.37 615.074,-474.529 618.341,-484.607 623.913,-480.37"/>
</g>
<!-- update -->
<g id="node4" class="node"><title>update</title>
<polygon fill="none" stroke="black" points="683.122,-438.5 683.122,-474.5 737.122,-474.5 737.122,-438.5 683.122,-438.5"/>
<text text-anchor="middle" x="709.781" y="-452.3" font-family="Times,serif" font-size="14.00">update</text>
</g>
<!-- ForStatement&#45;&gt;update -->
<g id="edge3" class="edge"><title>ForStatement&#45;&gt;update</title>
<path fill="none" stroke="black" d="M669.194,-511.313C675.761,-502.679 683.841,-492.055 691.082,-482.534"/>
<polygon fill="black" stroke="black" points="693.903,-484.607 697.171,-474.529 688.331,-480.37 693.903,-484.607"/>
</g>
<!-- body -->
<g id="node5" class="node"><title>body</title>
<polygon fill="none" stroke="black" points="816.122,-438.5 816.122,-474.5 870.122,-474.5 870.122,-438.5 816.122,-438.5"/>
<text text-anchor="middle" x="843.122" y="-452.3" font-family="Times,serif" font-size="14.00">body</text>
</g>
<!-- ForStatement&#45;&gt;body -->
<g id="edge4" class="edge"><title>ForStatement&#45;&gt;body</title>
<path fill="none" stroke="black" d="M700.913,-511.494C733.143,-499.257 776.086,-482.952 806.32,-471.473"/>
<polygon fill="black" stroke="black" points="807.946,-474.599 816.052,-467.778 805.461,-468.055 807.946,-474.599"/>
</g>
<!-- VariableDeclaration -->
<g id="node6" class="node"><title>VariableDeclaration</title>
<polygon fill="none" stroke="black" points="241.153,-365.5 241.153,-401.5 369.091,-401.5 369.091,-365.5 241.153,-365.5"/>
<text text-anchor="middle" x="305.122" y="-379.3" font-family="Times,serif" font-size="14.00">VariableDeclaration</text>
</g>
<!-- init&#45;&gt;VariableDeclaration -->
<g id="edge5" class="edge"><title>init&#45;&gt;VariableDeclaration</title>
<path fill="none" stroke="black" d="M400.046,-439.743C383.396,-430.053 361.801,-417.485 343.416,-406.786"/>
<polygon fill="black" stroke="black" points="345.087,-403.709 334.684,-401.704 341.567,-409.759 345.087,-403.709"/>
</g>
<!-- BinaryExpression -->
<g id="node17" class="node"><title>BinaryExpression</title>
<polygon fill="none" stroke="black" points="525.963,-365.5 525.963,-401.5 642.281,-401.5 642.281,-365.5 525.963,-365.5"/>
<text text-anchor="middle" x="584.122" y="-379.3" font-family="Times,serif" font-size="14.00">BinaryExpression</text>
</g>
<!-- test&#45;&gt;BinaryExpression -->
<g id="edge16" class="edge"><title>test&#45;&gt;BinaryExpression</title>
<path fill="none" stroke="black" d="M597.765,-438.313C595.709,-430.202 593.207,-420.336 590.911,-411.277"/>
<polygon fill="black" stroke="black" points="594.289,-410.362 588.439,-401.529 587.504,-412.082 594.289,-410.362"/>
</g>
<!-- UpdateExpression -->
<g id="node24" class="node"><title>UpdateExpression</title>
<polygon fill="none" stroke="black" points="660.156,-365.5 660.156,-401.5 798.088,-401.5 798.088,-365.5 660.156,-365.5"/>
<text text-anchor="middle" x="729.122" y="-379.3" font-family="Times,serif" font-size="14.00">UpdateExpression ++</text>
</g>
<!-- update&#45;&gt;UpdateExpression -->
<g id="edge23" class="edge"><title>update&#45;&gt;UpdateExpression</title>
<path fill="none" stroke="black" d="M714.721,-438.313C716.892,-430.202 719.532,-420.336 721.956,-411.277"/>
<polygon fill="black" stroke="black" points="725.361,-412.094 724.565,-401.529 718.599,-410.284 725.361,-412.094"/>
</g>
<!-- ExpressionStatement -->
<g id="node26" class="node"><title>ExpressionStatement</title>
<polygon fill="none" stroke="black" points="819.022,-365.5 819.022,-401.5 953.222,-401.5 953.222,-365.5 819.022,-365.5"/>
<text text-anchor="middle" x="886.122" y="-379.3" font-family="Times,serif" font-size="14.00">ExpressionStatement</text>
</g>
<!-- body&#45;&gt;ExpressionStatement -->
<g id="edge25" class="edge"><title>body&#45;&gt;ExpressionStatement</title>
<path fill="none" stroke="black" d="M853.531,-438.313C858.654,-429.853 864.935,-419.484 870.61,-410.112"/>
<polygon fill="black" stroke="black" points="873.622,-411.896 875.809,-401.529 867.635,-408.269 873.622,-411.896"/>
</g>
<!-- VariableDeclarator0 -->
<g id="node7" class="node"><title>VariableDeclarator0</title>
<polygon fill="none" stroke="black" points="104.267,-292.5 104.267,-328.5 225.978,-328.5 225.978,-292.5 104.267,-292.5"/>
<text text-anchor="middle" x="165.122" y="-306.3" font-family="Times,serif" font-size="14.00">VariableDeclarator</text>
</g>
<!-- VariableDeclaration&#45;&gt;VariableDeclarator0 -->
<g id="edge6" class="edge"><title>VariableDeclaration&#45;&gt;VariableDeclarator0</title>
<path fill="none" stroke="black" d="M271.589,-365.494C252.508,-355.817 228.411,-343.597 207.971,-333.23"/>
<polygon fill="black" stroke="black" points="209.369,-330.015 198.867,-328.614 206.203,-336.258 209.369,-330.015"/>
</g>
<!-- VariableDeclarator1 -->
<g id="node8" class="node"><title>VariableDeclarator1</title>
<polygon fill="none" stroke="black" points="244.267,-292.5 244.267,-328.5 365.978,-328.5 365.978,-292.5 244.267,-292.5"/>
<text text-anchor="middle" x="305.122" y="-306.3" font-family="Times,serif" font-size="14.00">VariableDeclarator</text>
</g>
<!-- VariableDeclaration&#45;&gt;VariableDeclarator1 -->
<g id="edge7" class="edge"><title>VariableDeclaration&#45;&gt;VariableDeclarator1</title>
<path fill="none" stroke="black" d="M305.122,-365.313C305.122,-357.289 305.122,-347.547 305.122,-338.569"/>
<polygon fill="black" stroke="black" points="308.622,-338.529 305.122,-328.529 301.622,-338.529 308.622,-338.529"/>
</g>
<!-- id_0 -->
<g id="node9" class="node"><title>id_0</title>
<polygon fill="none" stroke="black" points="51.1221,-219.5 51.1221,-255.5 105.122,-255.5 105.122,-219.5 51.1221,-219.5"/>
<text text-anchor="middle" x="78.0669" y="-233.3" font-family="Times,serif" font-size="14.00">id</text>
</g>
<!-- VariableDeclarator0&#45;&gt;id_0 -->
<g id="edge8" class="edge"><title>VariableDeclarator0&#45;&gt;id_0</title>
<path fill="none" stroke="black" d="M144.062,-292.313C132.948,-283.243 119.143,-271.977 107.041,-262.1"/>
<polygon fill="black" stroke="black" points="108.949,-259.14 98.9884,-255.529 104.523,-264.563 108.949,-259.14"/>
</g>
<!-- init_0 -->
<g id="node10" class="node"><title>init_0</title>
<polygon fill="none" stroke="black" points="140.122,-219.5 140.122,-255.5 194.122,-255.5 194.122,-219.5 140.122,-219.5"/>
<text text-anchor="middle" x="166.957" y="-233.3" font-family="Times,serif" font-size="14.00">init</text>
</g>
<!-- VariableDeclarator0&#45;&gt;init_0 -->
<g id="edge9" class="edge"><title>VariableDeclarator0&#45;&gt;init_0</title>
<path fill="none" stroke="black" d="M165.606,-292.313C165.832,-284.289 166.107,-274.547 166.36,-265.569"/>
<polygon fill="black" stroke="black" points="169.859,-265.623 166.642,-255.529 162.862,-265.426 169.859,-265.623"/>
</g>
<!-- id_1 -->
<g id="node13" class="node"><title>id_1</title>
<polygon fill="none" stroke="black" points="277.122,-219.5 277.122,-255.5 331.122,-255.5 331.122,-219.5 277.122,-219.5"/>
<text text-anchor="middle" x="304.067" y="-233.3" font-family="Times,serif" font-size="14.00">id</text>
</g>
<!-- VariableDeclarator1&#45;&gt;id_1 -->
<g id="edge12" class="edge"><title>VariableDeclarator1&#45;&gt;id_1</title>
<path fill="none" stroke="black" d="M304.88,-292.313C304.767,-284.289 304.63,-274.547 304.503,-265.569"/>
<polygon fill="black" stroke="black" points="308.002,-265.479 304.362,-255.529 301.003,-265.577 308.002,-265.479"/>
</g>
<!-- init_1 -->
<g id="node14" class="node"><title>init_1</title>
<polygon fill="none" stroke="black" points="369.122,-219.5 369.122,-255.5 423.122,-255.5 423.122,-219.5 369.122,-219.5"/>
<text text-anchor="middle" x="395.957" y="-233.3" font-family="Times,serif" font-size="14.00">init</text>
</g>
<!-- VariableDeclarator1&#45;&gt;init_1 -->
<g id="edge13" class="edge"><title>VariableDeclarator1&#45;&gt;init_1</title>
<path fill="none" stroke="black" d="M327.151,-292.313C338.887,-283.156 353.493,-271.76 366.238,-261.816"/>
<polygon fill="black" stroke="black" points="368.565,-264.44 374.296,-255.529 364.259,-258.921 368.565,-264.44"/>
</g>
<!-- Identifier0 -->
<g id="node11" class="node"><title>Identifier0</title>
<polygon fill="none" stroke="black" points="0,-146.5 0,-182.5 122.244,-182.5 122.244,-146.5 0,-146.5"/>
<text text-anchor="middle" x="61.1221" y="-160.3" font-family="Times,serif" font-size="14.00">Identifier [name=i]</text>
</g>
<!-- id_0&#45;&gt;Identifier0 -->
<g id="edge10" class="edge"><title>id_0&#45;&gt;Identifier0</title>
<path fill="none" stroke="black" d="M74.0068,-219.313C72.0649,-211.202 69.7024,-201.336 67.5334,-192.277"/>
<polygon fill="black" stroke="black" points="70.9318,-191.439 65.1994,-182.529 64.1242,-193.069 70.9318,-191.439"/>
</g>
<!-- Literal0 -->
<g id="node12" class="node"><title>Literal0</title>
<polygon fill="none" stroke="black" points="140.217,-146.5 140.217,-182.5 204.027,-182.5 204.027,-146.5 140.217,-146.5"/>
<text text-anchor="middle" x="172.122" y="-160.3" font-family="Times,serif" font-size="14.00">Literal 0</text>
</g>
<!-- init_0&#45;&gt;Literal0 -->
<g id="edge11" class="edge"><title>init_0&#45;&gt;Literal0</title>
<path fill="none" stroke="black" d="M168.332,-219.313C168.897,-211.289 169.584,-201.547 170.216,-192.569"/>
<polygon fill="black" stroke="black" points="173.712,-192.75 170.923,-182.529 166.729,-192.258 173.712,-192.75"/>
</g>
<!-- Identifier7 -->
<g id="node15" class="node"><title>Identifier7</title>
<polygon fill="none" stroke="black" points="232.624,-146.5 232.624,-182.5 369.62,-182.5 369.62,-146.5 232.624,-146.5"/>
<text text-anchor="middle" x="301.122" y="-160.3" font-family="Times,serif" font-size="14.00">Identifier [name=acc]</text>
</g>
<!-- id_1&#45;&gt;Identifier7 -->
<g id="edge14" class="edge"><title>id_1&#45;&gt;Identifier7</title>
<path fill="none" stroke="black" d="M303.396,-219.313C303.057,-211.289 302.645,-201.547 302.266,-192.569"/>
<polygon fill="black" stroke="black" points="305.761,-192.372 301.842,-182.529 298.767,-192.668 305.761,-192.372"/>
</g>
<!-- Literal2 -->
<g id="node16" class="node"><title>Literal2</title>
<polygon fill="none" stroke="black" points="387.217,-146.5 387.217,-182.5 451.027,-182.5 451.027,-146.5 387.217,-146.5"/>
<text text-anchor="middle" x="419.122" y="-160.3" font-family="Times,serif" font-size="14.00">Literal 0</text>
</g>
<!-- init_1&#45;&gt;Literal2 -->
<g id="edge15" class="edge"><title>init_1&#45;&gt;Literal2</title>
<path fill="none" stroke="black" d="M401.69,-219.313C404.317,-211.202 407.513,-201.336 410.448,-192.277"/>
<polygon fill="black" stroke="black" points="413.854,-193.121 413.606,-182.529 407.194,-190.963 413.854,-193.121"/>
</g>
<!-- Identifier1 -->
<g id="node18" class="node"><title>Identifier1</title>
<polygon fill="none" stroke="black" points="384,-292.5 384,-328.5 506.244,-328.5 506.244,-292.5 384,-292.5"/>
<text text-anchor="middle" x="445.122" y="-306.3" font-family="Times,serif" font-size="14.00">Identifier [name=i]</text>
</g>
<!-- BinaryExpression&#45;&gt;Identifier1 -->
<g id="edge17" class="edge"><title>BinaryExpression&#45;&gt;Identifier1</title>
<path fill="none" stroke="black" d="M550.828,-365.494C531.884,-355.817 507.959,-343.597 487.664,-333.23"/>
<polygon fill="black" stroke="black" points="489.124,-330.046 478.626,-328.614 485.94,-336.279 489.124,-330.046"/>
</g>
<!-- MemberExpression0 -->
<g id="node19" class="node"><title>MemberExpression0</title>
<polygon fill="none" stroke="black" points="524.301,-292.5 524.301,-328.5 649.943,-328.5 649.943,-292.5 524.301,-292.5"/>
<text text-anchor="middle" x="587.122" y="-306.3" font-family="Times,serif" font-size="14.00">MemberExpression</text>
</g>
<!-- BinaryExpression&#45;&gt;MemberExpression0 -->
<g id="edge18" class="edge"><title>BinaryExpression&#45;&gt;MemberExpression0</title>
<path fill="none" stroke="black" d="M584.848,-365.313C585.187,-357.289 585.599,-347.547 585.978,-338.569"/>
<polygon fill="black" stroke="black" points="589.477,-338.668 586.403,-328.529 582.483,-338.372 589.477,-338.668"/>
</g>
<!-- object0 -->
<g id="node20" class="node"><title>object0</title>
<polygon fill="none" stroke="black" points="535.122,-219.5 535.122,-255.5 589.122,-255.5 589.122,-219.5 535.122,-219.5"/>
<text text-anchor="middle" x="561.726" y="-233.3" font-family="Times,serif" font-size="14.00">object</text>
</g>
<!-- MemberExpression0&#45;&gt;object0 -->
<g id="edge19" class="edge"><title>MemberExpression0&#45;&gt;object0</title>
<path fill="none" stroke="black" d="M581.07,-292.313C578.184,-284.115 574.665,-274.123 571.448,-264.985"/>
<polygon fill="black" stroke="black" points="574.741,-263.799 568.118,-255.529 568.138,-266.124 574.741,-263.799"/>
</g>
<!-- property0 -->
<g id="node22" class="node"><title>property0</title>
<polygon fill="none" stroke="black" points="630.408,-219.5 630.408,-255.5 693.836,-255.5 693.836,-219.5 630.408,-219.5"/>
<text text-anchor="middle" x="662.122" y="-233.3" font-family="Times,serif" font-size="14.00">property</text>
</g>
<!-- MemberExpression0&#45;&gt;property0 -->
<g id="edge21" class="edge"><title>MemberExpression0&#45;&gt;property0</title>
<path fill="none" stroke="black" d="M605.277,-292.313C614.674,-283.417 626.302,-272.409 636.589,-262.672"/>
<polygon fill="black" stroke="black" points="639.278,-264.945 644.134,-255.529 634.466,-259.862 639.278,-264.945"/>
</g>
<!-- Identifier2 -->
<g id="node21" class="node"><title>Identifier2</title>
<polygon fill="none" stroke="black" points="475.176,-146.5 475.176,-182.5 609.068,-182.5 609.068,-146.5 475.176,-146.5"/>
<text text-anchor="middle" x="542.122" y="-160.3" font-family="Times,serif" font-size="14.00">Identifier [name=arr]</text>
</g>
<!-- object0&#45;&gt;Identifier2 -->
<g id="edge20" class="edge"><title>object0&#45;&gt;Identifier2</title>
<path fill="none" stroke="black" d="M557.281,-219.313C554.996,-211.202 552.217,-201.336 549.665,-192.277"/>
<polygon fill="black" stroke="black" points="552.999,-191.205 546.919,-182.529 546.261,-193.103 552.999,-191.205"/>
</g>
<!-- Identifier3 -->
<g id="node23" class="node"><title>Identifier3</title>
<polygon fill="none" stroke="black" points="627.448,-146.5 627.448,-182.5 780.796,-182.5 780.796,-146.5 627.448,-146.5"/>
<text text-anchor="middle" x="704.122" y="-160.3" font-family="Times,serif" font-size="14.00">Identifier [name=length]</text>
</g>
<!-- property0&#45;&gt;Identifier3 -->
<g id="edge22" class="edge"><title>property0&#45;&gt;Identifier3</title>
<path fill="none" stroke="black" d="M672.289,-219.313C677.242,-210.941 683.301,-200.697 688.799,-191.403"/>
<polygon fill="black" stroke="black" points="691.97,-192.918 694.049,-182.529 685.945,-189.354 691.97,-192.918"/>
</g>
<!-- Identifier4 -->
<g id="node25" class="node"><title>Identifier4</title>
<polygon fill="none" stroke="black" points="668,-292.5 668,-328.5 790.244,-328.5 790.244,-292.5 668,-292.5"/>
<text text-anchor="middle" x="729.122" y="-306.3" font-family="Times,serif" font-size="14.00">Identifier [name=i]</text>
</g>
<!-- UpdateExpression&#45;&gt;Identifier4 -->
<g id="edge24" class="edge"><title>UpdateExpression&#45;&gt;Identifier4</title>
<path fill="none" stroke="black" d="M729.122,-365.313C729.122,-357.289 729.122,-347.547 729.122,-338.569"/>
<polygon fill="black" stroke="black" points="732.622,-338.529 729.122,-328.529 725.622,-338.529 732.622,-338.529"/>
</g>
<!-- AssignmentExpression -->
<g id="node27" class="node"><title>AssignmentExpression</title>
<polygon fill="none" stroke="black" points="807.925,-292.5 807.925,-328.5 972.319,-328.5 972.319,-292.5 807.925,-292.5"/>
<text text-anchor="middle" x="890.122" y="-306.3" font-family="Times,serif" font-size="14.00">AssignmentExpression +=</text>
</g>
<!-- ExpressionStatement&#45;&gt;AssignmentExpression -->
<g id="edge26" class="edge"><title>ExpressionStatement&#45;&gt;AssignmentExpression</title>
<path fill="none" stroke="black" d="M887.09,-365.313C887.542,-357.289 888.091,-347.547 888.597,-338.569"/>
<polygon fill="black" stroke="black" points="892.095,-338.71 889.163,-328.529 885.106,-338.316 892.095,-338.71"/>
</g>
<!-- left -->
<g id="node28" class="node"><title>left</title>
<polygon fill="none" stroke="black" points="855.122,-219.5 855.122,-255.5 909.122,-255.5 909.122,-219.5 855.122,-219.5"/>
<text text-anchor="middle" x="881.95" y="-233.3" font-family="Times,serif" font-size="14.00">left</text>
</g>
<!-- AssignmentExpression&#45;&gt;left -->
<g id="edge27" class="edge"><title>AssignmentExpression&#45;&gt;left</title>
<path fill="none" stroke="black" d="M888.185,-292.313C887.281,-284.289 886.184,-274.547 885.172,-265.569"/>
<polygon fill="black" stroke="black" points="888.639,-265.074 884.041,-255.529 881.683,-265.858 888.639,-265.074"/>
</g>
<!-- right -->
<g id="node30" class="node"><title>right</title>
<polygon fill="none" stroke="black" points="965.122,-219.5 965.122,-255.5 1019.12,-255.5 1019.12,-219.5 965.122,-219.5"/>
<text text-anchor="middle" x="991.843" y="-233.3" font-family="Times,serif" font-size="14.00">right</text>
</g>
<!-- AssignmentExpression&#45;&gt;right -->
<g id="edge29" class="edge"><title>AssignmentExpression&#45;&gt;right</title>
<path fill="none" stroke="black" d="M914.554,-292.494C927.954,-283.166 944.751,-271.474 959.284,-261.358"/>
<polygon fill="black" stroke="black" points="961.329,-264.199 967.536,-255.614 957.329,-258.454 961.329,-264.199"/>
</g>
<!-- Identifier8 -->
<g id="node29" class="node"><title>Identifier8</title>
<polygon fill="none" stroke="black" points="810.624,-146.5 810.624,-182.5 947.62,-182.5 947.62,-146.5 810.624,-146.5"/>
<text text-anchor="middle" x="879.122" y="-160.3" font-family="Times,serif" font-size="14.00">Identifier [name=acc]</text>
</g>
<!-- left&#45;&gt;Identifier8 -->
<g id="edge28" class="edge"><title>left&#45;&gt;Identifier8</title>
<path fill="none" stroke="black" d="M881.396,-219.313C881.057,-211.289 880.645,-201.547 880.266,-192.569"/>
<polygon fill="black" stroke="black" points="883.761,-192.372 879.842,-182.529 876.767,-192.668 883.761,-192.372"/>
</g>
<!-- MemberExpression1 -->
<g id="node31" class="node"><title>MemberExpression1</title>
<polygon fill="none" stroke="black" points="965.301,-146.5 965.301,-182.5 1090.94,-182.5 1090.94,-146.5 965.301,-146.5"/>
<text text-anchor="middle" x="1028.12" y="-160.3" font-family="Times,serif" font-size="14.00">MemberExpression</text>
</g>
<!-- right&#45;&gt;MemberExpression1 -->
<g id="edge30" class="edge"><title>right&#45;&gt;MemberExpression1</title>
<path fill="none" stroke="black" d="M1000.84,-219.313C1005.04,-211.028 1010.17,-200.91 1014.84,-191.693"/>
<polygon fill="black" stroke="black" points="1018.09,-193.031 1019.49,-182.529 1011.84,-189.865 1018.09,-193.031"/>
</g>
<!-- object1 -->
<g id="node32" class="node"><title>object1</title>
<polygon fill="none" stroke="black" points="945.122,-73.5 945.122,-109.5 999.122,-109.5 999.122,-73.5 945.122,-73.5"/>
<text text-anchor="middle" x="971.726" y="-87.3" font-family="Times,serif" font-size="14.00">object</text>
</g>
<!-- MemberExpression1&#45;&gt;object1 -->
<g id="edge31" class="edge"><title>MemberExpression1&#45;&gt;object1</title>
<path fill="none" stroke="black" d="M1014.57,-146.313C1007.76,-137.679 999.377,-127.055 991.867,-117.534"/>
<polygon fill="black" stroke="black" points="994.494,-115.213 985.553,-109.529 988.998,-119.548 994.494,-115.213"/>
</g>
<!-- property1 -->
<g id="node33" class="node"><title>property1</title>
<polygon fill="none" stroke="black" points="1051.41,-73.5 1051.41,-109.5 1114.84,-109.5 1114.84,-73.5 1051.41,-73.5"/>
<text text-anchor="middle" x="1083.12" y="-87.3" font-family="Times,serif" font-size="14.00">property</text>
</g>
<!-- MemberExpression1&#45;&gt;property1 -->
<g id="edge32" class="edge"><title>MemberExpression1&#45;&gt;property1</title>
<path fill="none" stroke="black" d="M1041.44,-146.313C1048.12,-137.679 1056.35,-127.055 1063.73,-117.534"/>
<polygon fill="black" stroke="black" points="1066.57,-119.578 1069.93,-109.529 1061.04,-115.291 1066.57,-119.578"/>
</g>
<!-- Identifier5 -->
<g id="node34" class="node"><title>Identifier5</title>
<polygon fill="none" stroke="black" points="888.176,-0.5 888.176,-36.5 1022.07,-36.5 1022.07,-0.5 888.176,-0.5"/>
<text text-anchor="middle" x="955.122" y="-14.3" font-family="Times,serif" font-size="14.00">Identifier [name=arr]</text>
</g>
<!-- object1&#45;&gt;Identifier5 -->
<g id="edge33" class="edge"><title>object1&#45;&gt;Identifier5</title>
<path fill="none" stroke="black" d="M968.007,-73.3129C966.065,-65.2023 963.702,-55.3355 961.533,-46.2766"/>
<polygon fill="black" stroke="black" points="964.932,-45.4389 959.199,-36.5288 958.124,-47.069 964.932,-45.4389"/>
</g>
<!-- Identifier6 -->
<g id="node35" class="node"><title>Identifier6</title>
<polygon fill="none" stroke="black" points="1040,-0.5 1040,-36.5 1162.24,-36.5 1162.24,-0.5 1040,-0.5"/>
<text text-anchor="middle" x="1101.12" y="-14.3" font-family="Times,serif" font-size="14.00">Identifier [name=i]</text>
</g>
<!-- property1&#45;&gt;Identifier6 -->
<g id="edge34" class="edge"><title>property1&#45;&gt;Identifier6</title>
<path fill="none" stroke="black" d="M1087.48,-73.3129C1089.54,-65.2023 1092.04,-55.3355 1094.33,-46.2766"/>
<polygon fill="black" stroke="black" points="1097.74,-47.0823 1096.8,-36.5288 1090.95,-45.362 1097.74,-47.0823"/>
</g>
</g>
</svg>
